<svg width="20" height="20" viewBox="0 0 20 20" fill="none" xmlns="http://www.w3.org/2000/svg">
<path d="M10.3176 17.4614C11.0725 17.2798 11.54 16.5086 11.3619 15.7391C11.1837 14.9695 10.4273 14.4929 9.67244 14.6745C8.91756 14.8561 8.45004 15.6272 8.62821 16.3968C8.80638 17.1664 9.56276 17.643 10.3176 17.4614Z" fill="#CC2D4F"/>
<path d="M4.71938 5.82332C3.49623 6.42574 2.38157 7.23427 1.42236 8.21486C1.312 8.32737 1.25 8.47998 1.25 8.63909C1.25 8.79821 1.312 8.95081 1.42236 9.06332C1.53272 9.17583 1.68241 9.23904 1.83849 9.23904C1.99456 9.23904 2.14425 9.17583 2.25461 9.06332C3.17917 8.11806 4.26253 7.34953 5.45325 6.79421L4.71938 5.82332Z" fill="#CC2D4F"/>
<path d="M18.5761 8.21486C17.0832 6.69451 15.2275 5.59704 13.1918 5.03061C11.1561 4.46418 9.01071 4.44836 6.96719 4.98469L5.27131 2.74235C5.22472 2.67835 5.16608 2.62445 5.09882 2.58382C5.03156 2.54318 4.95704 2.51662 4.8796 2.50568C4.80216 2.49474 4.72335 2.49964 4.64779 2.5201C4.57223 2.54055 4.50143 2.57616 4.43952 2.62483C4.37761 2.67349 4.32582 2.73425 4.2872 2.80355C4.24857 2.87285 4.2239 2.9493 4.21459 3.02843C4.20527 3.10757 4.21151 3.1878 4.23296 3.26445C4.2544 3.34109 4.29062 3.41262 4.33949 3.47483L14.133 16.4263C14.1796 16.4903 14.2383 16.5441 14.3055 16.5848C14.3728 16.6254 14.4473 16.652 14.5248 16.6629C14.6022 16.6739 14.681 16.669 14.7566 16.6485C14.8321 16.628 14.9029 16.5924 14.9648 16.5438C15.0267 16.4951 15.0785 16.4343 15.1171 16.365C15.1558 16.2957 15.1805 16.2193 15.1898 16.1402C15.1991 16.061 15.1928 15.9808 15.1714 15.9041C15.15 15.8275 15.1137 15.756 15.0649 15.6938L13.9644 14.2384C14.0689 14.2172 14.1659 14.1676 14.245 14.0946C14.324 14.0217 14.3822 13.9282 14.4131 13.8242C14.4441 13.7202 14.4468 13.6096 14.4209 13.5042C14.395 13.3987 14.3415 13.3025 14.2661 13.2256C13.6616 12.6069 12.9344 12.127 12.1333 11.8179L10.2069 9.26636C12.2011 9.31502 14.0999 10.1471 15.5066 11.589C15.617 11.7015 15.7666 11.7647 15.9226 11.7647C16.0786 11.7647 16.2283 11.7015 16.3386 11.589C16.4489 11.4765 16.5109 11.324 16.5109 11.1649C16.5109 11.0059 16.4489 10.8533 16.3386 10.7409C15.508 9.88954 14.5201 9.21464 13.4319 8.75523C12.3438 8.29582 11.177 8.06103 9.99925 8.06443C9.77052 8.06443 9.54331 8.07366 9.31729 8.09089L7.75719 6.02665C8.49518 5.87096 9.24684 5.79261 10.0005 5.79285C11.4394 5.78876 12.8649 6.07571 14.1943 6.63709C15.5237 7.19847 16.7307 8.02313 17.7454 9.06332C17.8558 9.17583 18.0054 9.23903 18.1615 9.23903C18.3176 9.23903 18.4673 9.17583 18.5776 9.06332C18.688 8.9508 18.75 8.7982 18.75 8.63909C18.75 8.47997 18.688 8.32737 18.5776 8.21486H18.5761Z" fill="#CC2D4F"/>
<path d="M6.8519 8.64247C5.65252 9.10131 4.56393 9.81767 3.65991 10.743C3.54959 10.8555 3.48761 11.008 3.48761 11.1671C3.48761 11.3261 3.54959 11.4787 3.65991 11.5911C3.77023 11.7036 3.91985 11.7668 4.07587 11.7668C4.23189 11.7668 4.38153 11.7036 4.49185 11.5911C5.36407 10.6986 6.43277 10.0314 7.60901 9.64504L6.8519 8.64247Z" fill="#CC2D4F"/>
<path d="M9.01461 11.5029C7.76994 11.7098 6.62109 12.3119 5.73179 13.2235C5.62142 13.336 5.55942 13.4886 5.55942 13.6477C5.55942 13.8068 5.62142 13.9594 5.73179 14.0719C5.84215 14.1845 5.99183 14.2477 6.14791 14.2477C6.30399 14.2477 6.45367 14.1845 6.56404 14.0719C7.43947 13.1743 8.62073 12.6554 9.86195 12.6233L9.01461 11.5029Z" fill="#CC2D4F"/>
</svg>
