<svg width="32" height="32" viewBox="0 0 32 32" fill="none" xmlns="http://www.w3.org/2000/svg">
<g clip-path="url(#clip0_12021_45399)">
<path d="M16 1.40597C16.3935 1.40597 16.6971 1.10229 16.6971 0.697364C16.6971 0.303691 16.3935 0 16 0C15.6064 0 15.2916 0.303691 15.2916 0.697364C15.2916 1.10229 15.6064 1.40597 16 1.40597ZM18.6648 1.64218C19.0583 1.64218 19.3619 1.33849 19.3619 0.944817C19.3619 0.551142 19.0583 0.236204 18.6648 0.236204C18.2712 0.236204 17.9564 0.551142 17.9564 0.944817C17.9564 1.33849 18.2712 1.64218 18.6648 1.64218ZM21.2283 2.3283C21.6219 2.3283 21.9367 2.02461 21.9367 1.63093C21.9367 1.23726 21.6219 0.922319 21.2283 0.922319C20.8349 0.922319 20.5312 1.23726 20.5312 1.63093C20.5312 2.02461 20.8349 2.3283 21.2283 2.3283ZM23.657 3.47557C24.0506 3.47557 24.3541 3.17188 24.3541 2.7782C24.3541 2.38454 24.0506 2.06959 23.657 2.06959C23.2635 2.06959 22.9487 2.38454 22.9487 2.7782C22.9487 3.17188 23.2635 3.47557 23.657 3.47557ZM25.8383 5.00527C26.2319 5.00527 26.5467 4.69034 26.5467 4.29666C26.5467 3.90299 26.2319 3.5993 25.8383 3.5993C25.4448 3.5993 25.13 3.90299 25.13 4.29666C25.13 4.69034 25.4448 5.00527 25.8383 5.00527ZM27.7273 6.88365C28.1208 6.88365 28.4357 6.57997 28.4357 6.18629C28.4357 5.79262 28.1208 5.47768 27.7273 5.47768C27.3338 5.47768 27.0302 5.79262 27.0302 6.18629C27.0302 6.57997 27.3338 6.88365 27.7273 6.88365ZM29.2564 9.07699C29.65 9.07699 29.9648 8.7733 29.9648 8.37963C29.9648 7.98595 29.65 7.671 29.2564 7.671C28.8629 7.671 28.5593 7.98595 28.5593 8.37963C28.5593 8.7733 28.8629 9.07699 29.2564 9.07699ZM30.3809 11.4953C30.7744 11.4953 31.0892 11.1803 31.0892 10.7867C31.0892 10.393 30.7744 10.0892 30.3809 10.0892C29.9873 10.0892 29.6725 10.393 29.6725 10.7867C29.6725 11.1803 29.9873 11.4953 30.3809 11.4953ZM31.0667 14.0597C31.4602 14.0597 31.7751 13.756 31.7751 13.3511C31.7751 12.9575 31.4602 12.6538 31.0667 12.6538C30.6732 12.6538 30.3584 12.9575 30.3584 13.3511C30.3584 13.756 30.6732 14.0597 31.0667 14.0597ZM31.2916 16.6918C31.6851 16.6918 32 16.3881 32 15.9944C32 15.6007 31.6851 15.2857 31.2916 15.2857C30.8981 15.2857 30.5945 15.6007 30.5945 15.9944C30.5945 16.3881 30.8981 16.6918 31.2916 16.6918ZM31.0667 19.3237C31.4602 19.3237 31.7751 19.02 31.7751 18.6264C31.7751 18.2327 31.4602 17.9178 31.0667 17.9178C30.6732 17.9178 30.3584 18.2327 30.3584 18.6264C30.3584 19.02 30.6732 19.3237 31.0667 19.3237ZM30.3809 21.8995C30.7744 21.8995 31.0892 21.5846 31.0892 21.1909C31.0892 20.7972 30.7744 20.4822 30.3809 20.4822C29.9873 20.4822 29.6725 20.7972 29.6725 21.1909C29.6725 21.5846 29.9873 21.8995 30.3809 21.8995ZM29.2564 24.3065C29.65 24.3065 29.9648 24.0028 29.9648 23.5979C29.9648 23.2042 29.65 22.9005 29.2564 22.9005C28.8629 22.9005 28.5593 23.2042 28.5593 23.5979C28.5593 24.0028 28.8629 24.3065 29.2564 24.3065ZM27.7273 26.4998C28.1208 26.4998 28.4357 26.1961 28.4357 25.8025C28.4357 25.3976 28.1208 25.0939 27.7273 25.0939C27.3338 25.0939 27.0302 25.3976 27.0302 25.8025C27.0302 26.1961 27.3338 26.4998 27.7273 26.4998ZM25.8383 28.3895C26.2319 28.3895 26.5467 28.0745 26.5467 27.6808C26.5467 27.2872 26.2319 26.9835 25.8383 26.9835C25.4448 26.9835 25.13 27.2872 25.13 27.6808C25.13 28.0745 25.4448 28.3895 25.8383 28.3895ZM23.657 29.9079C24.0506 29.9079 24.3541 29.6042 24.3541 29.2106C24.3541 28.8169 24.0506 28.5019 23.657 28.5019C23.2635 28.5019 22.9487 28.8169 22.9487 29.2106C22.9487 29.6042 23.2635 29.9079 23.657 29.9079ZM21.2283 31.0552C21.6219 31.0552 21.9367 30.7515 21.9367 30.3578C21.9367 29.9529 21.6219 29.6492 21.2283 29.6492C20.8349 29.6492 20.5312 29.9529 20.5312 30.3578C20.5312 30.7515 20.8349 31.0552 21.2283 31.0552ZM18.6648 31.7413C19.0583 31.7413 19.3619 31.4376 19.3619 31.044C19.3619 30.639 19.0583 30.3353 18.6648 30.3353C18.2712 30.3353 17.9564 30.639 17.9564 31.044C17.9564 31.4376 18.2712 31.7413 18.6648 31.7413ZM16 31.9775C16.3935 31.9775 16.6971 31.6738 16.6971 31.2801C16.6971 30.8865 16.3935 30.5716 16 30.5716C15.6064 30.5716 15.2916 30.8865 15.2916 31.2801C15.2916 31.6738 15.6064 31.9775 16 31.9775ZM13.3352 31.7413C13.7287 31.7413 14.0323 31.4376 14.0323 31.044C14.0323 30.639 13.7287 30.3353 13.3352 30.3353C12.9417 30.3353 12.6268 30.639 12.6268 31.044C12.6268 31.4376 12.9417 31.7413 13.3352 31.7413ZM10.7604 31.0552C11.1538 31.0552 11.4687 30.7515 11.4687 30.3578C11.4687 29.9529 11.1538 29.6492 10.7604 29.6492C10.3669 29.6492 10.0633 29.9529 10.0633 30.3578C10.0633 30.7515 10.3669 31.0552 10.7604 31.0552ZM8.3429 29.9079C8.73643 29.9079 9.04001 29.6042 9.04001 29.2106C9.04001 28.8169 8.73643 28.5019 8.3429 28.5019C7.94936 28.5019 7.63457 28.8169 7.63457 29.2106C7.63457 29.6042 7.94936 29.9079 8.3429 29.9079ZM6.16162 28.3895C6.55516 28.3895 6.85874 28.0745 6.85874 27.6808C6.85874 27.2872 6.55516 26.9835 6.16162 26.9835C5.76809 26.9835 5.45326 27.2872 5.45326 27.6808C5.45326 28.0745 5.76809 28.3895 6.16162 28.3895ZM4.26142 26.4998C4.65495 26.4998 4.96978 26.1961 4.96978 25.8025C4.96978 25.3976 4.65495 25.0939 4.26142 25.0939C3.86788 25.0939 3.56429 25.3976 3.56429 25.8025C3.56429 26.1961 3.86788 26.4998 4.26142 26.4998ZM2.73225 24.3065C3.13703 24.3065 3.44061 24.0028 3.44061 23.5979C3.44061 23.2042 3.13703 22.9005 2.73225 22.9005C2.33872 22.9005 2.03514 23.2042 2.03514 23.5979C2.03514 24.0028 2.33872 24.3065 2.73225 24.3065ZM1.61912 21.8995C2.01265 21.8995 2.31623 21.5846 2.31623 21.1909C2.31623 20.7972 2.01265 20.4822 1.61912 20.4822C1.22558 20.4822 0.910748 20.7972 0.910748 21.1909C0.910748 21.5846 1.22558 21.8995 1.61912 21.8995ZM0.933238 19.3237C1.32678 19.3237 1.63035 19.02 1.63035 18.6264C1.63035 18.2327 1.32678 17.9178 0.933238 17.9178C0.539704 17.9178 0.224877 18.2327 0.224877 18.6264C0.224877 19.02 0.539704 19.3237 0.933238 19.3237ZM0.708362 16.6918C1.1019 16.6918 1.40548 16.3881 1.40548 15.9944C1.40548 15.6007 1.1019 15.2857 0.708362 15.2857C0.303584 15.2857 0 15.6007 0 15.9944C0 16.3881 0.303584 16.6918 0.708362 16.6918ZM0.933238 14.0597C1.32678 14.0597 1.63035 13.756 1.63035 13.3511C1.63035 12.9575 1.32678 12.6538 0.933238 12.6538C0.539704 12.6538 0.224877 12.9575 0.224877 13.3511C0.224877 13.756 0.539704 14.0597 0.933238 14.0597ZM1.61912 11.4953C2.01265 11.4953 2.31623 11.1803 2.31623 10.7867C2.31623 10.393 2.01265 10.0892 1.61912 10.0892C1.22558 10.0892 0.910748 10.393 0.910748 10.7867C0.910748 11.1803 1.22558 11.4953 1.61912 11.4953ZM2.73225 9.07699C3.13703 9.07699 3.44061 8.7733 3.44061 8.37963C3.44061 7.98595 3.13703 7.671 2.73225 7.671C2.33872 7.671 2.03514 7.98595 2.03514 8.37963C2.03514 8.7733 2.33872 9.07699 2.73225 9.07699ZM4.26142 6.88365C4.65495 6.88365 4.96978 6.57997 4.96978 6.18629C4.96978 5.79262 4.65495 5.47768 4.26142 5.47768C3.86788 5.47768 3.56429 5.79262 3.56429 6.18629C3.56429 6.57997 3.86788 6.88365 4.26142 6.88365ZM6.16162 5.00527C6.55516 5.00527 6.85874 4.69034 6.85874 4.29666C6.85874 3.90299 6.55516 3.5993 6.16162 3.5993C5.76809 3.5993 5.45326 3.90299 5.45326 4.29666C5.45326 4.69034 5.76809 5.00527 6.16162 5.00527ZM8.3429 3.47557C8.73643 3.47557 9.04001 3.17188 9.04001 2.7782C9.04001 2.38454 8.73643 2.06959 8.3429 2.06959C7.94936 2.06959 7.63457 2.38454 7.63457 2.7782C7.63457 3.17188 7.94936 3.47557 8.3429 3.47557ZM10.7604 2.3283C11.1538 2.3283 11.4687 2.02461 11.4687 1.63093C11.4687 1.23726 11.1538 0.922319 10.7604 0.922319C10.3669 0.922319 10.0633 1.23726 10.0633 1.63093C10.0633 2.02461 10.3669 2.3283 10.7604 2.3283ZM13.3352 1.64218C13.7287 1.64218 14.0323 1.33849 14.0323 0.944817C14.0323 0.551142 13.7287 0.236204 13.3352 0.236204C12.9417 0.236204 12.6268 0.551142 12.6268 0.944817C12.6268 1.33849 12.9417 1.64218 13.3352 1.64218Z" fill="black" fill-opacity="0.85"/>
<path d="M16 27.5796C22.3977 27.5796 27.5811 22.4168 27.5811 15.9944C27.5811 9.61684 22.3753 4.40912 16 4.40912C9.55729 4.40912 4.41884 9.58313 4.41884 15.9944C4.41884 22.4393 9.54601 27.5796 16 27.5796ZM16 26.2861C10.2544 26.2861 5.70063 21.7308 5.70063 15.9944C5.70063 10.2805 10.2994 5.69137 16 5.69137C21.6781 5.69137 26.2994 10.3142 26.2994 15.9944C26.2994 21.697 21.7006 26.2861 16 26.2861Z" fill="black" fill-opacity="0.85"/>
<path d="M16 21.7983C19.2045 21.7983 21.7793 19.2225 21.7793 16.0169C21.7793 12.8113 19.1933 10.2242 16 10.2242C12.7955 10.2242 10.2094 12.8113 10.2094 16.0169C10.2094 19.2337 12.7843 21.7983 16 21.7983ZM16 19.4025C14.111 19.4025 12.6156 17.8953 12.6156 16.0169C12.6156 14.1385 14.1222 12.6313 16 12.6313C17.8552 12.6313 19.3844 14.1497 19.3844 16.0169C19.3844 17.884 17.8665 19.4025 16 19.4025Z" fill="black" fill-opacity="0.85"/>
</g>
<defs>
<clipPath id="clip0_12021_45399">
<rect width="32" height="32" fill="white"/>
</clipPath>
</defs>
</svg>
