<svg width="32" height="32" viewBox="0 0 32 32" fill="none" xmlns="http://www.w3.org/2000/svg">
<path d="M21.1212 3.19623C21.0419 3.19719 20.9635 3.21288 20.8899 3.24248L4.24991 9.64248C4.12919 9.68898 4.0254 9.77096 3.95221 9.87763C3.87902 9.98429 3.83986 10.1106 3.83991 10.24V23.68C3.83871 23.7648 3.85438 23.849 3.886 23.9277C3.91763 24.0064 3.96458 24.078 4.02413 24.1384C4.08367 24.1988 4.15463 24.2468 4.23288 24.2795C4.31112 24.3122 4.39509 24.3291 4.47991 24.3291C4.56472 24.3291 4.64869 24.3122 4.72694 24.2795C4.80518 24.2468 4.87614 24.1988 4.93569 24.1384C4.99524 24.078 5.04219 24.0064 5.07381 23.9277C5.10544 23.849 5.12111 23.7648 5.11991 23.68V10.68L21.3499 4.43748C21.492 4.38563 21.6111 4.28515 21.6861 4.15386C21.7612 4.02257 21.7873 3.86895 21.7599 3.72023C21.7325 3.57151 21.6533 3.4373 21.5364 3.34138C21.4195 3.24547 21.2724 3.19405 21.1212 3.19623ZM24.3212 5.75623C24.2419 5.75719 24.1635 5.77288 24.0899 5.80248L7.44991 12.2025C7.32919 12.249 7.2254 12.331 7.15221 12.4376C7.07902 12.5443 7.03987 12.6706 7.03991 12.8V26.24C7.03871 26.3248 7.05438 26.409 7.086 26.4877C7.11763 26.5664 7.16458 26.638 7.22413 26.6984C7.28367 26.7588 7.35463 26.8068 7.43288 26.8395C7.51112 26.8722 7.59509 26.8891 7.67991 26.8891C7.76472 26.8891 7.84869 26.8722 7.92694 26.8395C8.00518 26.8068 8.07614 26.7588 8.13569 26.6984C8.19524 26.638 8.24219 26.5664 8.27382 26.4877C8.30544 26.409 8.32111 26.3248 8.31991 26.24V13.24L24.5499 6.99748C24.692 6.94563 24.8111 6.84515 24.8861 6.71386C24.9612 6.58257 24.9873 6.42895 24.9599 6.28023C24.9325 6.13151 24.8533 5.9973 24.7364 5.90138C24.6195 5.80547 24.4724 5.75405 24.3212 5.75623ZM27.5012 8.31998C27.4288 8.32211 27.3574 8.33648 27.2899 8.36248L10.6499 14.7625C10.5292 14.809 10.4254 14.891 10.3522 14.9976C10.279 15.1043 10.2399 15.2306 10.2399 15.36V29.44C10.2399 29.5439 10.2652 29.6462 10.3135 29.7382C10.3619 29.8301 10.432 29.9089 10.5176 29.9678C10.6033 30.0266 10.702 30.0637 10.8051 30.0758C10.9083 30.088 11.0129 30.0748 11.1099 30.0375L27.7499 23.6375C27.8706 23.591 27.9744 23.509 28.0476 23.4023C28.1208 23.2957 28.16 23.1693 28.1599 23.04V8.95998C28.1599 8.87434 28.1428 8.78956 28.1094 8.71067C28.0761 8.63178 28.0273 8.56037 27.9659 8.5007C27.9044 8.44102 27.8316 8.39427 27.7518 8.36323C27.672 8.33219 27.5868 8.31748 27.5012 8.31998ZM26.8799 9.89248V22.6L11.5199 28.5075V15.8L26.8799 9.89248Z" fill="black"/>
</svg>
