<svg width="375" height="326" viewBox="0 0 375 326" fill="none" xmlns="http://www.w3.org/2000/svg">
<path d="M85.1209 123.489C85.1209 119.888 88.0588 116.969 91.6828 116.969H137.405C140.037 116.969 142.608 117.755 144.784 119.226L151.774 127.208C154.568 129.465 156.522 129.465 159.154 129.465H268.854C272.478 129.465 275.416 132.383 275.416 135.984V234.317C275.416 252.919 260.237 268 241.513 268H94.9638C89.5277 268 85.1209 263.622 85.1209 258.221V123.489Z" fill="url(#paint0_linear_11706_25307)"/>
<g filter="url(#filter0_d_11706_25307)">
<path d="M110.159 136.091C106.843 126.265 112.291 111.518 121.53 113.983L180.518 136.091H110.159Z" fill="#E7DBCC"/>
<path d="M117.942 113.71C141.588 118.891 144.686 180.275 141.588 206.964H253.106C251.39 134.621 246.704 117.41 227.371 113.71H117.942Z" fill="url(#paint1_linear_11706_25307)"/>
<line x1="149.646" y1="162.059" x2="244.794" y2="162.059" stroke="#D0C6B9" stroke-width="1.09071"/>
<line x1="148.553" y1="153.367" x2="243.701" y2="153.367" stroke="#D0C6B9" stroke-width="1.09071"/>
<line x1="147.459" y1="144.674" x2="242.607" y2="144.674" stroke="#D0C6B9" stroke-width="1.09071"/>
<line x1="144.178" y1="135.982" x2="239.326" y2="135.982" stroke="#D0C6B9" stroke-width="1.09071"/>
<line x1="139.804" y1="127.29" x2="234.951" y2="127.29" stroke="#D0C6B9" stroke-width="1.09071"/>
<line x1="133.242" y1="118.597" x2="228.389" y2="118.597" stroke="#D0C6B9" stroke-width="1.09071"/>
</g>
<path d="M206.863 74.2014C207.674 71.1944 210.771 69.4063 213.78 70.2075L227.868 73.9579C229.267 74.3303 230.467 75.2259 231.221 76.4592L237.007 85.9338C237.811 87.2491 238.038 88.8372 237.636 90.3277L232.325 110.019C231.514 113.026 228.417 114.814 225.407 114.013L203.536 108.191C200.527 107.389 198.744 104.302 199.555 101.295L206.863 74.2014Z" fill="#58C48D"/>
<path d="M237.822 89.2084L230.648 87.2985C228.134 86.6294 226.642 84.0624 227.316 81.5651L229.217 74.5149C230.034 74.9834 230.728 75.6517 231.225 76.4663L237.013 85.9427C237.616 86.9312 237.894 88.072 237.822 89.2084Z" fill="#68EBA9"/>
<g clip-path="url(#clip0_11706_25307)">
<rect width="3.2833" height="4.92495" rx="0.820825" transform="matrix(0.966345 0.25725 -0.260396 0.965502 211.73 95.9773)" fill="white"/>
<rect width="3.2833" height="13.1332" rx="0.820825" transform="matrix(0.966345 0.25725 -0.260396 0.965502 218.627 89.3191)" fill="white"/>
<rect width="3.2833" height="8.20825" rx="0.820825" transform="matrix(0.966345 0.25725 -0.260396 0.965502 222.104 95.3408)" fill="white"/>
</g>
<path d="M132.309 78.1158C131.232 74.1202 133.6 70.0181 137.599 68.9535L159.513 63.1199C161.372 62.625 163.352 62.8633 165.043 63.7855L180.081 71.9823C181.885 72.9656 183.208 74.6432 183.742 76.6237L191.889 106.829C192.966 110.825 190.598 114.927 186.599 115.991L152.718 125.011C148.719 126.075 144.603 123.699 143.526 119.704L132.309 78.1158Z" fill="#F47425"/>
<path d="M183.241 75.3998L172.653 78.2184C168.944 79.206 165.131 77.0187 164.137 73.3331L161.33 62.928C162.723 62.9278 164.105 63.2737 165.346 63.9501L179.782 71.8191C181.287 72.6399 182.489 73.8948 183.241 75.3998Z" fill="#FCA73E"/>
<g clip-path="url(#clip1_11706_25307)">
<path d="M160.873 90.3001C156.004 91.5964 153.142 96.5648 154.439 101.372C155.735 106.179 160.714 109.061 165.583 107.764C170.422 106.476 173.322 101.53 172.017 96.6925L163.228 99.0322L160.873 90.3001Z" fill="white"/>
<path d="M161.753 88.8167L164.108 97.5488L172.897 95.209C171.592 90.3713 166.622 87.5204 161.753 88.8167Z" fill="white"/>
</g>
<g filter="url(#filter1_d_11706_25307)">
<path d="M109.688 184.778L66.0244 173.191C64.484 172.782 63.5896 171.191 64.0038 169.66L71.33 142.582C71.7442 141.051 73.3411 140.121 74.8625 140.524L118.507 152.106C120.048 152.515 120.942 154.106 120.528 155.637L113.202 182.715C112.801 184.271 111.21 185.181 109.688 184.778Z" fill="url(#paint2_linear_11706_25307)"/>
<path d="M89.7927 164.664C90.5951 165.786 92.1045 166.186 93.3655 165.613L120.305 153.38C119.931 152.796 119.339 152.335 118.613 152.143L74.7453 140.498C74.0193 140.305 73.2741 140.411 72.6551 140.731L89.7927 164.664Z" fill="url(#paint3_linear_11706_25307)"/>
</g>
<path d="M54.242 184.921C53.5864 182.455 55.0563 179.93 57.5252 179.282L113.403 164.624C115.871 163.977 118.404 165.452 119.06 167.918L119.455 169.407L54.6376 186.41L54.242 184.921Z" fill="#58C48D"/>
<g clip-path="url(#clip2_11706_25307)">
<path d="M54.6375 186.41L119.455 169.407L127.764 200.672C128.42 203.138 126.95 205.663 124.481 206.311L68.6038 220.969C66.1349 221.616 63.6021 220.142 62.9466 217.675L54.6375 186.41Z" fill="#6CE2AA"/>
<rect width="20.7965" height="20.7965" rx="3.08096" transform="matrix(0.967273 -0.253738 0.256847 0.966452 63.519 192.84)" fill="white"/>
<path fill-rule="evenodd" clip-rule="evenodd" d="M76.2476 200.251C78.3307 199.704 79.571 197.574 79.0178 195.493C78.4647 193.411 76.3276 192.167 74.2446 192.714C72.1615 193.26 70.9213 195.39 71.4744 197.471C72.0275 199.553 74.1646 200.797 76.2476 200.251ZM73.6154 202.285C72.2573 202.641 71.1833 203.666 70.7862 204.984L70.2273 206.84C69.788 208.298 71.1408 209.653 72.6435 209.259L83.858 206.317C85.3607 205.923 85.8642 204.081 84.7573 203.028L83.3493 201.689C82.3489 200.737 80.9057 200.372 79.5476 200.729L73.6154 202.285Z" fill="#216542"/>
<rect width="27.7286" height="0.77024" transform="matrix(0.967273 -0.253738 0.256847 0.966452 90.782 190.466)" fill="#58C48D"/>
<rect width="27.7286" height="0.77024" transform="matrix(0.967273 -0.253738 0.256847 0.966452 92.1668 195.677)" fill="#58C48D"/>
<rect width="27.7286" height="0.77024" transform="matrix(0.967273 -0.253738 0.256847 0.966452 93.5515 200.887)" fill="#58C48D"/>
</g>
<g clip-path="url(#clip3_11706_25307)" filter="url(#filter2_d_11706_25307)">
<rect width="31.4357" height="31.3052" transform="matrix(-0.90621 0.422827 0.427364 0.904079 279.843 122.402)" fill="url(#paint4_linear_11706_25307)"/>
<path fill-rule="evenodd" clip-rule="evenodd" d="M274.03 147.875C270.832 149.367 267.017 147.991 265.509 144.8C264.001 141.61 265.37 137.814 268.568 136.322C271.766 134.83 275.581 136.206 277.09 139.397C278.598 142.587 277.228 146.383 274.03 147.875ZM279.494 147.676C281.579 146.703 284.014 146.866 285.909 148.106L288.577 149.85C290.674 151.222 290.407 154.336 288.1 155.412L270.883 163.445C268.576 164.522 265.993 162.737 266.27 160.258L266.622 157.105C266.873 154.864 268.302 152.898 270.387 151.925L279.494 147.676Z" fill="#B5BDDE"/>
<path fill-rule="evenodd" clip-rule="evenodd" d="M279.843 122.402L293.257 150.779L264.813 164.051L251.399 135.674L279.843 122.402ZM254.793 136.898L278.625 125.779L289.863 149.554L266.032 160.674L254.793 136.898Z" fill="#C9D1FA"/>
</g>
<g filter="url(#filter3_d_11706_25307)">
<path d="M290.657 129.032C291.948 127.152 294.525 126.664 296.413 127.944L298.712 129.501L264.712 179.038L262.413 177.481C260.525 176.202 260.041 173.64 261.331 171.76L290.657 129.032Z" fill="url(#paint5_linear_11706_25307)"/>
<g clip-path="url(#clip4_11706_25307)">
<path d="M298.712 129.501L329.586 150.417C331.481 151.701 331.967 154.271 330.672 156.158L301.362 198.862C300.067 200.749 297.481 201.238 295.587 199.955L264.712 179.038L298.712 129.501Z" fill="url(#paint6_linear_11706_25307)"/>
<path fill-rule="evenodd" clip-rule="evenodd" d="M302.694 158.164C302.848 158.238 303 158.317 303.15 158.402L298.867 164.642L295.461 162.344C297.154 160.178 299.672 158.629 302.694 158.164ZM294.314 161.57C295.753 159.702 297.733 158.233 300.092 157.401C297.314 157.064 294.452 158.138 292.603 160.416L294.314 161.57ZM291.824 161.556L293.533 162.71C292.316 164.719 291.668 167.079 291.751 169.557C290.424 167.12 290.38 164.093 291.824 161.556ZM294.68 163.484L298.085 165.781L293.804 172.019C293.671 171.911 293.541 171.799 293.416 171.685C292.749 168.727 293.277 165.838 294.68 163.484ZM299.23 166.553L294.946 172.795C295.116 172.891 295.289 172.981 295.463 173.064C298.481 172.598 300.996 171.049 302.688 168.886L299.23 166.553ZM303.835 169.66C302.403 171.519 300.434 172.982 298.09 173.816C300.848 174.13 303.681 173.055 305.516 170.795L303.835 169.66ZM306.296 169.654L304.615 168.52C305.827 166.521 306.474 164.174 306.4 161.709C307.696 164.137 307.728 167.137 306.296 169.654ZM303.468 167.747L300.012 165.415L304.295 159.175C304.447 159.297 304.594 159.423 304.735 159.554C305.399 162.509 304.871 165.395 303.468 167.747ZM302.916 156.749L302.915 156.744L302.907 156.745C298.729 154.953 293.721 156.299 291.055 160.182C288.39 164.066 288.958 169.19 292.164 172.4L292.166 172.406L292.169 172.405C292.596 172.832 293.07 173.225 293.589 173.576C294.116 173.934 294.667 174.232 295.232 174.473L295.234 174.485L295.254 174.483C299.424 176.248 304.408 174.898 307.064 171.028C309.721 167.157 309.165 162.054 305.988 158.843L305.983 158.823L305.972 158.826C305.54 158.391 305.059 157.991 304.531 157.633C304.012 157.282 303.471 156.988 302.916 156.749Z" fill="#F5F4F2"/>
</g>
</g>
<g filter="url(#filter4_d_11706_25307)">
<path d="M118.121 176.161C119.314 172.606 122.644 170.21 126.394 170.21H301.315C305.787 170.21 308.942 174.596 307.519 178.836L279.6 262.05C278.407 265.605 275.077 268 271.327 268H96.4067C91.9345 268 88.7798 263.614 90.2023 259.374L118.121 176.161Z" fill="url(#paint7_linear_11706_25307)"/>
</g>
<g filter="url(#filter5_d_11706_25307)">
<path fill-rule="evenodd" clip-rule="evenodd" d="M125.504 153.994C122.477 150.987 117.571 150.987 114.545 153.994C112.394 156.13 111.77 159.211 112.679 161.897L112.877 162.482L112.438 162.918L105.9 169.413V173.47H109.398V171.733C109.398 171.183 109.846 170.738 110.399 170.738H112.148L112.148 169.001C112.148 168.737 112.253 168.484 112.441 168.297C112.629 168.111 112.884 168.006 113.149 168.006H115.484L116.522 166.975L116.961 166.539L117.549 166.735C120.252 167.638 123.353 167.018 125.504 164.882C128.53 161.875 128.53 157.001 125.504 153.994ZM124.047 157.444C124.047 158.55 123.145 159.446 122.031 159.446C120.918 159.446 120.016 158.55 120.016 157.444C120.016 156.338 120.918 155.441 122.031 155.441C123.145 155.441 124.047 156.338 124.047 157.444Z" fill="url(#paint8_linear_11706_25307)"/>
</g>
<g filter="url(#filter6_d_11706_25307)">
<path d="M172.635 91.4685C172.635 87.3302 175.989 83.9753 180.128 83.9753H199.515C201.437 83.9753 203.286 84.7142 204.679 86.0391L215.386 96.2228C216.873 97.6373 217.715 99.5999 217.715 101.652V128.734C217.715 132.873 214.36 136.228 210.222 136.228H180.128C175.989 136.228 172.635 132.873 172.635 128.734V91.4685Z" fill="#5C8DFF"/>
<path d="M217.566 100.149H207.697C204.239 100.149 201.436 97.3638 201.436 93.9283V84.2295C202.647 84.5516 203.768 85.1726 204.688 86.0481L215.397 96.2338C216.514 97.2962 217.265 98.6658 217.566 100.149Z" fill="#8BB7FF"/>
<path d="M201.893 108.363C201.669 108.363 201.475 108.518 201.425 108.735L198.894 119.699L196.244 108.73C196.192 108.515 195.999 108.363 195.778 108.363H194.609C194.389 108.363 194.197 108.513 194.144 108.727L191.414 119.699L188.923 108.737C188.873 108.518 188.679 108.363 188.455 108.363H187.355C187.047 108.363 186.819 108.649 186.887 108.95L189.939 122.333C189.988 122.551 190.183 122.706 190.407 122.706H192.427C192.648 122.706 192.841 122.555 192.893 122.34L195.174 113.036L197.416 122.338C197.468 122.554 197.661 122.706 197.883 122.706H199.903C200.126 122.706 200.32 122.552 200.37 122.334L203.46 108.951C203.529 108.65 203.301 108.363 202.992 108.363H201.893Z" fill="white"/>
</g>
<defs>
<filter id="filter0_d_11706_25307" x="104.818" y="113.71" width="152.65" height="101.98" filterUnits="userSpaceOnUse" color-interpolation-filters="sRGB">
<feFlood flood-opacity="0" result="BackgroundImageFix"/>
<feColorMatrix in="SourceAlpha" type="matrix" values="0 0 0 0 0 0 0 0 0 0 0 0 0 0 0 0 0 0 127 0" result="hardAlpha"/>
<feOffset dy="4.36284"/>
<feGaussianBlur stdDeviation="2.18142"/>
<feComposite in2="hardAlpha" operator="out"/>
<feColorMatrix type="matrix" values="0 0 0 0 0 0 0 0 0 0 0 0 0 0 0 0 0 0 0.25 0"/>
<feBlend mode="normal" in2="BackgroundImageFix" result="effect1_dropShadow_11706_25307"/>
<feBlend mode="normal" in="SourceGraphic" in2="effect1_dropShadow_11706_25307" result="shape"/>
</filter>
<filter id="filter1_d_11706_25307" x="59.5398" y="140.402" width="65.452" height="53.1974" filterUnits="userSpaceOnUse" color-interpolation-filters="sRGB">
<feFlood flood-opacity="0" result="BackgroundImageFix"/>
<feColorMatrix in="SourceAlpha" type="matrix" values="0 0 0 0 0 0 0 0 0 0 0 0 0 0 0 0 0 0 127 0" result="hardAlpha"/>
<feOffset dy="4.36284"/>
<feGaussianBlur stdDeviation="2.18142"/>
<feComposite in2="hardAlpha" operator="out"/>
<feColorMatrix type="matrix" values="0 0 0 0 0 0 0 0 0 0 0 0 0 0 0 0 0 0 0.25 0"/>
<feBlend mode="normal" in2="BackgroundImageFix" result="effect1_dropShadow_11706_25307"/>
<feBlend mode="normal" in="SourceGraphic" in2="effect1_dropShadow_11706_25307" result="shape"/>
</filter>
<filter id="filter2_d_11706_25307" x="247.769" y="122.402" width="49.0405" height="48.7686" filterUnits="userSpaceOnUse" color-interpolation-filters="sRGB">
<feFlood flood-opacity="0" result="BackgroundImageFix"/>
<feColorMatrix in="SourceAlpha" type="matrix" values="0 0 0 0 0 0 0 0 0 0 0 0 0 0 0 0 0 0 127 0" result="hardAlpha"/>
<feOffset dy="3.58719"/>
<feGaussianBlur stdDeviation="1.79359"/>
<feComposite in2="hardAlpha" operator="out"/>
<feColorMatrix type="matrix" values="0 0 0 0 0 0 0 0 0 0 0 0 0 0 0 0 0 0 0.25 0"/>
<feBlend mode="normal" in2="BackgroundImageFix" result="effect1_dropShadow_11706_25307"/>
<feBlend mode="normal" in="SourceGraphic" in2="effect1_dropShadow_11706_25307" result="shape"/>
</filter>
<filter id="filter3_d_11706_25307" x="245.143" y="110.685" width="99.5448" height="102.174" filterUnits="userSpaceOnUse" color-interpolation-filters="sRGB">
<feFlood flood-opacity="0" result="BackgroundImageFix"/>
<feColorMatrix in="SourceAlpha" type="matrix" values="0 0 0 0 0 0 0 0 0 0 0 0 0 0 0 0 0 0 127 0" result="hardAlpha"/>
<feOffset dx="-1.09071" dy="-2.18142"/>
<feGaussianBlur stdDeviation="6.38065"/>
<feComposite in2="hardAlpha" operator="out"/>
<feColorMatrix type="matrix" values="0 0 0 0 0 0 0 0 0 0 0 0 0 0 0 0 0 0 0.09 0"/>
<feBlend mode="normal" in2="BackgroundImageFix" result="effect1_dropShadow_11706_25307"/>
<feBlend mode="normal" in="SourceGraphic" in2="effect1_dropShadow_11706_25307" result="shape"/>
</filter>
<filter id="filter4_d_11706_25307" x="82.2224" y="163.666" width="226.732" height="106.515" filterUnits="userSpaceOnUse" color-interpolation-filters="sRGB">
<feFlood flood-opacity="0" result="BackgroundImageFix"/>
<feColorMatrix in="SourceAlpha" type="matrix" values="0 0 0 0 0 0 0 0 0 0 0 0 0 0 0 0 0 0 127 0" result="hardAlpha"/>
<feOffset dx="-3.27213" dy="-2.18142"/>
<feGaussianBlur stdDeviation="2.18142"/>
<feComposite in2="hardAlpha" operator="out"/>
<feColorMatrix type="matrix" values="0 0 0 0 0 0 0 0 0 0 0 0 0 0 0 0 0 0 0.15 0"/>
<feBlend mode="normal" in2="BackgroundImageFix" result="effect1_dropShadow_11706_25307"/>
<feBlend mode="normal" in="SourceGraphic" in2="effect1_dropShadow_11706_25307" result="shape"/>
</filter>
<filter id="filter5_d_11706_25307" x="101.537" y="151.739" width="30.5987" height="30.4566" filterUnits="userSpaceOnUse" color-interpolation-filters="sRGB">
<feFlood flood-opacity="0" result="BackgroundImageFix"/>
<feColorMatrix in="SourceAlpha" type="matrix" values="0 0 0 0 0 0 0 0 0 0 0 0 0 0 0 0 0 0 127 0" result="hardAlpha"/>
<feOffset dy="4.36284"/>
<feGaussianBlur stdDeviation="2.18142"/>
<feComposite in2="hardAlpha" operator="out"/>
<feColorMatrix type="matrix" values="0 0 0 0 0 0 0 0 0 0 0 0 0 0 0 0 0 0 0.25 0"/>
<feBlend mode="normal" in2="BackgroundImageFix" result="effect1_dropShadow_11706_25307"/>
<feBlend mode="normal" in="SourceGraphic" in2="effect1_dropShadow_11706_25307" result="shape"/>
</filter>
<filter id="filter6_d_11706_25307" x="161.183" y="79.5034" width="67.9833" height="67.7403" filterUnits="userSpaceOnUse" color-interpolation-filters="sRGB">
<feFlood flood-opacity="0" result="BackgroundImageFix"/>
<feColorMatrix in="SourceAlpha" type="matrix" values="0 0 0 0 0 0 0 0 0 0 0 0 0 0 0 0 0 0 127 0" result="hardAlpha"/>
<feOffset dy="3.27213"/>
<feGaussianBlur stdDeviation="3.87202"/>
<feComposite in2="hardAlpha" operator="out"/>
<feColorMatrix type="matrix" values="0 0 0 0 0 0 0 0 0 0 0 0 0 0 0 0 0 0 0.19 0"/>
<feBlend mode="normal" in2="BackgroundImageFix" result="effect1_dropShadow_11706_25307"/>
<feBlend mode="normal" in="SourceGraphic" in2="effect1_dropShadow_11706_25307" result="shape"/>
</filter>
<linearGradient id="paint0_linear_11706_25307" x1="275.416" y1="68.6177" x2="222.642" y2="224.879" gradientUnits="userSpaceOnUse">
<stop stop-color="#EEBEFF"/>
<stop offset="1" stop-color="#6D4AFF"/>
</linearGradient>
<linearGradient id="paint1_linear_11706_25307" x1="179.833" y1="113.71" x2="179.833" y2="206.964" gradientUnits="userSpaceOnUse">
<stop stop-color="#FFF7ED"/>
<stop offset="1" stop-color="#BEB8B0"/>
</linearGradient>
<linearGradient id="paint2_linear_11706_25307" x1="96.6849" y1="146.315" x2="89.8652" y2="172.015" gradientUnits="userSpaceOnUse">
<stop stop-color="#C1CDF8"/>
<stop offset="1" stop-color="#E7ECFA"/>
</linearGradient>
<linearGradient id="paint3_linear_11706_25307" x1="98.8892" y1="138.149" x2="92.8907" y2="160.746" gradientUnits="userSpaceOnUse">
<stop stop-color="#DEDEF7"/>
<stop offset="1" stop-color="white"/>
</linearGradient>
<linearGradient id="paint4_linear_11706_25307" x1="15.7179" y1="0" x2="15.7179" y2="31.3052" gradientUnits="userSpaceOnUse">
<stop stop-color="#EEEEEE"/>
<stop offset="1" stop-color="#EEEEEE"/>
</linearGradient>
<linearGradient id="paint5_linear_11706_25307" x1="295.853" y1="127.564" x2="262.155" y2="177.306" gradientUnits="userSpaceOnUse">
<stop stop-color="#0339A1"/>
<stop offset="1" stop-color="#133BA3"/>
</linearGradient>
<linearGradient id="paint6_linear_11706_25307" x1="315.864" y1="141.121" x2="282.166" y2="190.863" gradientUnits="userSpaceOnUse">
<stop stop-color="#2A41BC"/>
<stop offset="1" stop-color="#1444A2"/>
</linearGradient>
<linearGradient id="paint7_linear_11706_25307" x1="240.966" y1="143.882" x2="285.798" y2="299.948" gradientUnits="userSpaceOnUse">
<stop stop-color="#EEBEFF"/>
<stop offset="1" stop-color="#6D4AFF"/>
</linearGradient>
<linearGradient id="paint8_linear_11706_25307" x1="116.837" y1="151.739" x2="116.837" y2="173.47" gradientUnits="userSpaceOnUse">
<stop stop-color="#FBC860"/>
<stop offset="1" stop-color="#CB9932"/>
</linearGradient>
<clipPath id="clip0_11706_25307">
<rect width="16.4536" height="16.3611" fill="white" transform="matrix(0.966345 0.25725 -0.260396 0.965502 212.709 86.0447)"/>
</clipPath>
<clipPath id="clip1_11706_25307">
<rect width="24.2831" height="24.1465" fill="white" transform="matrix(0.966345 -0.25725 0.260396 0.965502 148.794 89.7676)"/>
</clipPath>
<clipPath id="clip2_11706_25307">
<path d="M54.6375 186.41L119.455 169.407L127.764 200.672C128.42 203.138 126.95 205.663 124.481 206.311L68.6038 220.969C66.1349 221.616 63.6021 220.142 62.9466 217.675L54.6375 186.41Z" fill="white"/>
</clipPath>
<clipPath id="clip3_11706_25307">
<rect width="31.4357" height="31.3052" fill="white" transform="matrix(-0.90621 0.422827 0.427364 0.904079 279.843 122.402)"/>
</clipPath>
<clipPath id="clip4_11706_25307">
<path d="M298.712 129.501L329.586 150.417C331.481 151.701 331.967 154.271 330.672 156.158L301.362 198.862C300.067 200.749 297.481 201.238 295.587 199.955L264.712 179.038L298.712 129.501Z" fill="white"/>
</clipPath>
</defs>
</svg>
