<svg width="16" height="16" viewBox="0 0 16 16" fill="none" xmlns="http://www.w3.org/2000/svg">
<circle opacity="0.7" cx="8" cy="8" r="8" fill="#706D6B"/>
<path d="M7.08789 3.875C7.08789 3.52982 7.36771 3.25 7.71289 3.25C8.05807 3.25 8.33789 3.52982 8.33789 3.875L8.33789 10.666L11.3944 7.58826C11.6377 7.34334 12.0334 7.34197 12.2783 7.5852C12.5232 7.82843 12.5246 8.22415 12.2814 8.46908L8.26206 12.5163C8.14314 12.6361 7.9936 12.7092 7.83842 12.7347C7.79769 12.7431 7.75568 12.7474 7.71289 12.7474C7.67011 12.7474 7.6281 12.7431 7.58738 12.7347C7.43219 12.7092 7.28265 12.6361 7.16372 12.5163L3.14442 8.46908C2.90119 8.22415 2.90256 7.82843 3.14748 7.5852C3.3924 7.34197 3.78813 7.34334 4.03136 7.58826L7.08789 10.666L7.08789 3.875Z" fill="white"/>
</svg>
