<svg width="311" height="187" viewBox="0 0 311 187" fill="none" xmlns="http://www.w3.org/2000/svg">
<g clip-path="url(#clip0_13841_30561)">
<path d="M0 11.2C0 5.5667 4.26243 1 9.52041 1H301.48C306.738 1 311 5.5667 311 11.2V177.8C311 183.433 306.738 188 301.48 188H9.5204C4.26243 188 0 183.433 0 177.8V11.2Z" fill="white"/>
<path d="M0 11.2C0 5.5667 4.26243 1 9.52041 1H301.48C306.738 1 311 5.5667 311 11.2V177.8C311 183.433 306.738 188 301.48 188H9.5204C4.26243 188 0 183.433 0 177.8V11.2Z" fill="url(#paint0_linear_13841_30561)"/>
<path d="M358.108 362.001H43.5388C31.5336 362.001 22 352.48 22 340.492V134.299H380V340.492C379.647 352.128 370.113 362.001 358.108 362.001Z" fill="url(#paint1_linear_13841_30561)"/>
<path d="M22 134.299L200.312 260.096L380 134.299H22Z" fill="#4D34B3"/>
<path d="M380 134.299L210.906 16.438C204.55 11.854 196.076 11.854 189.72 16.438L22 134.299H380Z" fill="#4D34B3"/>
<path d="M328.857 170.143L200.313 260.093L73.1431 170.393V44.9208H328.857V170.143Z" fill="url(#paint2_linear_13841_30561)"/>
<path d="M100.5 118.739C100.5 112.464 104.907 107.5 110.202 107.5H343.5V185.261C343.5 191.536 339.093 196.5 333.798 196.5H100.5V118.739Z" fill="#6D4AFF" fill-opacity="0.03" stroke="#EDE8FF"/>
<path d="M126.697 120.33V126.5H125.57L122.886 122.616H122.841V126.5H121.536V120.33H122.681L125.344 124.21H125.399V120.33H126.697ZM129.495 126.59C128.07 126.59 127.199 125.674 127.199 124.207C127.199 122.779 128.082 121.812 129.444 121.812C130.667 121.812 131.619 122.589 131.619 124.162V124.515H128.468V124.518C128.468 125.207 128.875 125.632 129.516 125.632C129.944 125.632 130.275 125.449 130.405 125.096L131.592 125.174C131.411 126.033 130.64 126.59 129.495 126.59ZM128.468 123.719H130.411C130.408 123.168 130.022 122.77 129.465 122.77C128.896 122.77 128.495 123.192 128.468 123.719ZM132.972 126.5L131.712 121.872H133.011L133.728 124.982H133.77L134.517 121.872H135.792L136.551 124.963H136.59L137.295 121.872H138.591L137.334 126.5H135.975L135.18 123.59H135.123L134.327 126.5H132.972ZM140.509 126.5V121.872H141.793V126.5H140.509ZM141.154 121.276C140.774 121.276 140.461 120.984 140.461 120.625C140.461 120.269 140.774 119.977 141.154 119.977C141.537 119.977 141.85 120.269 141.85 120.625C141.85 120.984 141.537 121.276 141.154 121.276ZM144.917 121.872V122.836H144.047V125.078C144.047 125.433 144.225 125.53 144.481 125.53C144.601 125.53 144.737 125.5 144.8 125.488L145.002 126.443C144.872 126.485 144.637 126.551 144.306 126.563C143.375 126.602 142.757 126.154 142.763 125.247V122.836H142.131V121.872H142.763V120.764H144.047V121.872H144.917ZM147.448 126.59C146.023 126.59 145.152 125.674 145.152 124.207C145.152 122.779 146.035 121.812 147.397 121.812C148.62 121.812 149.572 122.589 149.572 124.162V124.515H146.421V124.518C146.421 125.207 146.827 125.632 147.469 125.632C147.897 125.632 148.228 125.449 148.358 125.096L149.545 125.174C149.364 126.033 148.593 126.59 147.448 126.59ZM146.421 123.719H148.364C148.361 123.168 147.975 122.77 147.418 122.77C146.848 122.77 146.448 123.192 146.421 123.719ZM150.045 126.5V121.872H151.268V122.689H151.322C151.515 122.143 151.988 121.812 152.612 121.812C153.247 121.812 153.72 122.152 153.868 122.689H153.916C154.106 122.159 154.633 121.812 155.311 121.812C156.173 121.812 156.769 122.384 156.769 123.388V126.5H155.489V123.641C155.489 123.126 155.182 122.87 154.772 122.87C154.305 122.87 154.031 123.195 154.031 123.674V126.5H152.786V123.614C152.786 123.159 152.503 122.87 152.081 122.87C151.654 122.87 151.328 123.21 151.328 123.722V126.5H150.045ZM162.868 123.192L161.693 123.264C161.629 122.966 161.364 122.722 160.918 122.722C160.521 122.722 160.207 122.903 160.21 123.18C160.207 123.403 160.367 123.55 160.798 123.644L161.635 123.813C162.533 123.996 162.97 124.397 162.973 125.066C162.97 125.979 162.111 126.59 160.912 126.59C159.686 126.59 158.933 126.045 158.812 125.159L160.075 125.093C160.153 125.47 160.457 125.665 160.915 125.665C161.364 125.665 161.662 125.47 161.668 125.195C161.662 124.963 161.479 124.816 161.075 124.734L160.274 124.575C159.37 124.394 158.933 123.945 158.936 123.252C158.933 122.36 159.713 121.812 160.897 121.812C162.066 121.812 162.753 122.339 162.868 123.192ZM164.7 123.825V126.5H163.416V120.33H164.664V122.689H164.718C164.929 122.143 165.399 121.812 166.101 121.812C167.065 121.812 167.704 122.469 167.701 123.553V126.5H166.417V123.782C166.42 123.213 166.113 122.879 165.592 122.879C165.067 122.879 164.703 123.228 164.7 123.825ZM169.666 126.587C168.783 126.587 168.129 126.123 168.129 125.207C168.129 124.174 168.951 123.867 169.867 123.782C170.672 123.704 170.988 123.665 170.988 123.367V123.349C170.988 122.969 170.738 122.749 170.301 122.749C169.84 122.749 169.566 122.975 169.479 123.282L168.292 123.186C168.469 122.342 169.199 121.812 170.307 121.812C171.338 121.812 172.272 122.276 172.272 123.379V126.5H171.054V125.858H171.018C170.792 126.289 170.349 126.587 169.666 126.587ZM170.033 125.702C170.596 125.702 170.997 125.331 170.997 124.846V124.355C170.844 124.457 170.386 124.524 170.105 124.563C169.653 124.626 169.355 124.804 169.355 125.165C169.355 125.518 169.638 125.702 170.033 125.702ZM172.903 126.5V121.872H174.147V122.68H174.195C174.364 122.107 174.789 121.806 175.307 121.806C175.436 121.806 175.596 121.824 175.71 121.851V122.99C175.59 122.951 175.346 122.921 175.168 122.921C174.602 122.921 174.186 123.312 174.186 123.882V126.5H172.903ZM177.903 126.59C176.478 126.59 175.607 125.674 175.607 124.207C175.607 122.779 176.49 121.812 177.852 121.812C179.075 121.812 180.027 122.589 180.027 124.162V124.515H176.875V124.518C176.875 125.207 177.282 125.632 177.924 125.632C178.352 125.632 178.683 125.449 178.813 125.096L180 125.174C179.819 126.033 179.048 126.59 177.903 126.59ZM176.875 123.719H178.819C178.816 123.168 178.43 122.77 177.873 122.77C177.303 122.77 176.903 123.192 176.875 123.719ZM182.205 126.575C181.15 126.575 180.328 125.741 180.328 124.192C180.328 122.601 181.187 121.812 182.202 121.812C182.976 121.812 183.347 122.273 183.518 122.65H183.558V120.33H184.838V126.5H183.573V125.759H183.518C183.341 126.144 182.952 126.575 182.205 126.575ZM182.612 125.554C183.229 125.554 183.585 125.012 183.585 124.186C183.585 123.361 183.235 122.833 182.612 122.833C181.976 122.833 181.638 123.385 181.638 124.186C181.638 124.994 181.982 125.554 182.612 125.554ZM188.04 126.5L186.781 121.872H188.079L188.796 124.982H188.839L189.586 121.872H190.86L191.619 124.963H191.659L192.364 121.872H193.659L192.403 126.5H191.044L190.249 123.59H190.191L189.396 126.5H188.04ZM193.979 126.5V121.872H195.262V126.5H193.979ZM194.624 121.276C194.244 121.276 193.931 120.984 193.931 120.625C193.931 120.269 194.244 119.977 194.624 119.977C195.006 119.977 195.32 120.269 195.32 120.625C195.32 120.984 195.006 121.276 194.624 121.276ZM198.387 121.872V122.836H197.516V125.078C197.516 125.433 197.694 125.53 197.95 125.53C198.071 125.53 198.206 125.5 198.27 125.488L198.472 126.443C198.342 126.485 198.107 126.551 197.776 126.563C196.845 126.602 196.227 126.154 196.233 125.247V122.836H195.6V121.872H196.233V120.764H197.516V121.872H198.387ZM200.241 123.825V126.5H198.958V120.33H200.205V122.689H200.259C200.47 122.143 200.94 121.812 201.642 121.812C202.606 121.812 203.245 122.469 203.242 123.553V126.5H201.959V123.782C201.962 123.213 201.654 122.879 201.133 122.879C200.609 122.879 200.244 123.228 200.241 123.825ZM206.278 128.235C205.953 128.235 205.655 128.181 205.471 128.103L205.76 127.145C206.212 127.283 206.535 127.262 206.703 126.828L206.779 126.633L205.119 121.872H206.468L207.426 125.271H207.475L208.442 121.872H209.8L208.002 127C207.74 127.747 207.234 128.235 206.278 128.235ZM212.026 126.59C210.622 126.59 209.748 125.629 209.748 124.204C209.748 122.77 210.622 121.812 212.026 121.812C213.43 121.812 214.304 122.77 214.304 124.204C214.304 125.629 213.43 126.59 212.026 126.59ZM212.032 125.596C212.668 125.596 212.999 125.003 212.999 124.195C212.999 123.388 212.668 122.791 212.032 122.791C211.384 122.791 211.053 123.388 211.053 124.195C211.053 125.003 211.384 125.596 212.032 125.596ZM217.741 124.53V121.872H219.024V126.5H217.792V125.659H217.744C217.536 126.202 217.036 126.56 216.34 126.56C215.409 126.56 214.776 125.9 214.773 124.819V121.872H216.057V124.59C216.06 125.135 216.373 125.476 216.858 125.476C217.319 125.476 217.744 125.15 217.741 124.53Z" fill="#C4B7FF"/>
<path d="M115.5 167.291C115.5 163.081 119.747 159.5 125.216 159.5H343.5V188.709C343.5 192.919 339.253 196.5 333.784 196.5H115.5V167.291Z" fill="white" stroke="#E2DBFF"/>
<rect x="128.789" y="171.484" width="13.5746" height="13.5746" rx="1.69682" fill="#DADBE0"/>
<path d="M133.031 176.15H138.121M133.031 178.271H136.424M133.031 180.392H138.121" stroke="#3A3F4A" stroke-width="0.848412" stroke-linecap="round"/>
<g clip-path="url(#clip1_13841_30561)">
<path d="M186.242 73.2256C187.128 73.7254 187.861 74.4615 188.365 75.3577C188.865 76.2736 189.127 77.3052 189.127 78.354C189.127 79.4029 188.865 80.4344 188.365 81.3503C187.863 82.2514 187.128 82.9925 186.242 83.4948C185.294 84.0266 184.226 84.2949 183.145 84.2728H179.331V72.4451H183.145C184.226 72.423 185.294 72.6938 186.242 73.2256ZM183.273 82.1653C183.919 82.1776 184.556 82.0077 185.116 81.6753C185.673 81.3429 186.131 80.8579 186.438 80.2793C186.744 79.686 186.906 79.0262 186.906 78.3565C186.906 77.6868 186.747 77.027 186.438 76.4336C186.136 75.8674 185.692 75.3946 185.147 75.0647C184.58 74.7225 183.931 74.5502 183.27 74.56H181.505V82.1505L183.273 82.1653Z" fill="#6D4AFF"/>
<path d="M190.08 79.4619C190.042 78.5337 190.355 77.6277 190.956 76.926C191.545 76.2785 192.372 75.9535 193.443 75.9535C193.803 75.951 194.162 75.9929 194.514 76.0741V78.0487C194.345 78.0487 194.152 78.0315 193.938 78.0315C193.349 78.0315 192.917 78.1693 192.645 78.4475C192.498 78.6199 192.387 78.8218 192.317 79.0384C192.247 79.2551 192.22 79.4841 192.237 79.713V84.2703H190.092L190.08 79.4619Z" fill="#6D4AFF"/>
<path d="M195.385 74.4295C195.257 74.3089 195.156 74.1636 195.086 74.0011C195.016 73.8386 194.982 73.6638 194.985 73.4865C194.982 73.3068 195.018 73.132 195.086 72.9671C195.156 72.8021 195.257 72.6544 195.385 72.5337C195.51 72.4057 195.658 72.3048 195.822 72.2358C195.986 72.1669 196.162 72.1324 196.338 72.1349C196.514 72.1324 196.688 72.1669 196.849 72.2358C197.011 72.3048 197.158 72.4057 197.281 72.5337C197.409 72.6544 197.51 72.8021 197.58 72.9671C197.65 73.132 197.684 73.3093 197.682 73.4865C197.684 73.6638 197.65 73.8386 197.58 74.0011C197.51 74.1636 197.409 74.3089 197.281 74.4295C197.158 74.5551 197.011 74.6536 196.849 74.72C196.688 74.7865 196.514 74.821 196.34 74.8185C196.164 74.821 195.988 74.789 195.827 74.7225C195.66 74.6536 195.51 74.5551 195.385 74.4295ZM197.414 84.2604H195.269V76.116H197.414V84.2604Z" fill="#6D4AFF"/>
<path d="M200.861 84.2604L197.822 76.116H200.079L201.471 80.2768C201.686 81.0056 201.811 81.4414 201.845 81.594H201.879C201.98 81.2026 202.118 80.7619 202.27 80.2768L203.662 76.116H205.937L202.897 84.2604H200.861Z" fill="#6D4AFF"/>
<path d="M213.813 80.9341H207.787C207.881 81.4265 208.141 81.8721 208.52 82.1922C208.899 82.4926 209.367 82.6501 209.844 82.6354C210.228 82.6501 210.609 82.5812 210.964 82.4359C211.244 82.2981 211.47 82.074 211.618 81.7934H213.603C213.395 82.6034 212.898 83.305 212.211 83.7581C211.519 84.216 210.711 84.4524 209.886 84.4425C209.13 84.4597 208.383 84.2702 207.722 83.8984C207.104 83.5463 206.598 83.0195 206.26 82.3818C205.91 81.7072 205.731 80.9563 205.744 80.193C205.731 79.4298 205.912 78.6739 206.269 78.0043C206.607 77.3691 207.114 76.8447 207.729 76.4877C208.375 76.1208 209.104 75.9386 209.84 75.9559C210.561 75.946 211.273 76.138 211.895 76.5098C212.5 76.8742 212.995 77.4011 213.325 78.0338C213.675 78.6986 213.854 79.4446 213.844 80.198C213.849 80.4442 213.837 80.6904 213.813 80.9341ZM208.498 78.2135C208.132 78.5188 207.876 78.9398 207.77 79.4101H211.823C211.76 78.9472 211.526 78.5238 211.169 78.2308C210.795 77.9181 210.322 77.7507 209.837 77.763C209.352 77.7482 208.88 77.9083 208.498 78.2135Z" fill="#6D4AFF"/>
<path d="M128.437 81.0956V84.2515H130.603V81.2334C130.603 80.9405 130.716 80.6574 130.921 80.4506C131.123 80.2438 131.4 80.1256 131.687 80.1256H133.909C134.944 80.1256 135.938 79.7047 136.67 78.9538C137.402 78.2055 137.813 77.1888 137.813 76.1302C137.813 75.0716 137.402 74.0549 136.67 73.3041C135.938 72.5557 134.944 72.1348 133.906 72.1348H128.437V76.0785H130.603V74.2199H133.762C134.253 74.2199 134.722 74.4193 135.069 74.7738C135.416 75.1283 135.611 75.6083 135.611 76.1105C135.611 76.6127 135.416 77.0927 135.069 77.4472C134.722 77.8017 134.253 78.0011 133.762 78.0011H131.467C131.07 78.0011 130.675 78.0799 130.309 78.2375C129.941 78.3926 129.609 78.6215 129.327 78.9095C129.046 79.1976 128.824 79.5397 128.67 79.9139C128.516 80.2856 128.437 80.6894 128.437 81.0956Z" fill="#1B1340"/>
<path d="M138.148 84.2515V79.4437C138.148 77.4817 139.267 75.9209 141.509 75.9209C141.867 75.916 142.226 75.9554 142.578 76.0416V78.0184C142.322 78.0011 142.103 78.0011 142 78.0011C140.813 78.0011 140.303 78.5575 140.303 79.685V84.2515H138.148Z" fill="#1B1340"/>
<path d="M143.223 80.1749C143.223 77.7624 145.004 75.9234 147.484 75.9234C149.964 75.9234 151.745 77.7624 151.745 80.1749C151.745 82.5874 149.964 84.4436 147.484 84.4436C145.004 84.4436 143.223 82.585 143.223 80.1749ZM149.622 80.1749C149.622 78.8037 148.721 77.8313 147.484 77.8313C146.244 77.8313 145.346 78.8012 145.346 80.1749C145.346 81.5633 146.246 82.5185 147.484 82.5185C148.724 82.5185 149.622 81.5609 149.622 80.1749Z" fill="#1B1340"/>
<path d="M158.635 80.1749C158.635 77.7624 160.417 75.9234 162.896 75.9234C165.373 75.9234 167.155 77.7624 167.155 80.1749C167.155 82.5874 165.373 84.4436 162.896 84.4436C160.417 84.4436 158.635 82.585 158.635 80.1749ZM165.032 80.1749C165.032 78.8037 164.131 77.8313 162.894 77.8313C161.656 77.8313 160.756 78.8012 160.756 80.1749C160.756 81.5633 161.656 82.5185 162.894 82.5185C164.131 82.5185 165.032 81.5609 165.032 80.1749Z" fill="#1B1340"/>
<path d="M168.274 84.2516V79.6185C168.274 77.467 169.615 75.921 172.008 75.921C174.384 75.921 175.725 77.4645 175.725 79.6185V84.2516H173.588V79.7909C173.588 78.5945 173.06 77.8461 172.008 77.8461C170.956 77.8461 170.429 78.592 170.429 79.7909V84.2516H168.274Z" fill="#1B1340"/>
<path d="M157.99 77.8484H155.664V80.8862C155.664 81.9448 156.037 82.4298 157.106 82.4298C157.207 82.4298 157.463 82.4298 157.785 82.4125V84.1998C157.345 84.3204 156.955 84.3918 156.529 84.3918C154.73 84.3918 153.507 83.2815 153.507 81.1816V77.8484H152.063V76.0956H152.424C152.566 76.0956 152.708 76.0661 152.838 76.0119C152.97 75.9553 153.088 75.8741 153.19 75.7707C153.291 75.6673 153.37 75.5467 153.425 75.4113C153.481 75.2759 153.507 75.1331 153.507 74.9879V73.336H155.662V76.0956H157.987V77.8484H157.99Z" fill="#1B1340"/>
<g clip-path="url(#clip2_13841_30561)">
<path d="M93 71.1112C93 66.3554 96.7907 62.5001 101.467 62.5001H115.013C119.689 62.5001 123.48 66.3554 123.48 71.1112V84.889C123.48 89.6448 119.689 93.5001 115.013 93.5001H101.467C96.7907 93.5001 93 89.6448 93 84.889V71.1112Z" fill="white"/>
<path d="M98.9268 72.2798L101.588 70.9266L106.244 73.633H114.227L114.227 85.0735L113.562 85.75H100.922C99.8203 85.75 98.9268 84.8413 98.9268 83.7203L98.9268 72.2798Z" fill="url(#paint3_radial_13841_30561)"/>
<path fill-rule="evenodd" clip-rule="evenodd" d="M106.218 71.2151C106.56 71.4674 106.971 71.6033 107.392 71.6033L115.558 71.6033C116.66 71.6033 117.553 72.5121 117.553 73.6331V83.7204C117.553 84.8414 116.66 85.7501 115.558 85.7501H113.562V76.0011C113.562 75.0669 112.817 74.3096 111.899 74.3096H104.914C104.482 74.3096 104.062 74.1672 103.716 73.9037L102.12 72.6858C101.774 72.4223 101.354 72.2799 100.922 72.2799L98.9268 72.2799C98.9268 71.1589 99.8203 70.2501 100.922 70.2501H104.265C104.687 70.2501 105.098 70.386 105.439 70.6383L106.218 71.2151Z" fill="url(#paint4_linear_13841_30561)"/>
</g>
</g>
<rect x="121" y="135.5" width="68" height="3" rx="1.5" fill="#E2DBFF"/>
<rect x="121" y="145.5" width="41" height="3" rx="1.5" fill="#E2DBFF"/>
<rect x="151" y="177" width="61" height="3" rx="1.5" fill="#DADBE0" fill-opacity="0.74902"/>
<path d="M22 13H357V192C357 198.627 351.627 204 345 204H22V13Z" fill="url(#paint5_linear_13841_30561)"/>
<path fill-rule="evenodd" clip-rule="evenodd" d="M56.4102 361.735H357.086C369.092 361.735 378.625 351.862 378.978 340.226V135.017L56.4102 361.735Z" fill="url(#paint6_linear_13841_30561)"/>
</g>
<defs>
<linearGradient id="paint0_linear_13841_30561" x1="-12.2384" y1="-5.82481" x2="318.648" y2="192.604" gradientUnits="userSpaceOnUse">
<stop stop-color="#642B74"/>
<stop offset="1" stop-color="#27127D"/>
</linearGradient>
<linearGradient id="paint1_linear_13841_30561" x1="174.363" y1="157.707" x2="22.2672" y2="362.199" gradientUnits="userSpaceOnUse">
<stop stop-color="#EEBEFF"/>
<stop offset="1" stop-color="#6D4AFF"/>
</linearGradient>
<linearGradient id="paint2_linear_13841_30561" x1="200.489" y1="44.2932" x2="200.489" y2="260.093" gradientUnits="userSpaceOnUse">
<stop stop-color="white"/>
<stop offset="1" stop-color="#FFF3EF"/>
</linearGradient>
<radialGradient id="paint3_radial_13841_30561" cx="0" cy="0" r="1" gradientUnits="userSpaceOnUse" gradientTransform="translate(115.509 60.7432) scale(28.5505 30.6925)">
<stop offset="0.5561" stop-color="#6D4AFF"/>
<stop offset="1" stop-color="#FF50C3"/>
</radialGradient>
<linearGradient id="paint4_linear_13841_30561" x1="98.6812" y1="62.161" x2="122.104" y2="87.7607" gradientUnits="userSpaceOnUse">
<stop stop-color="#7341FF"/>
<stop offset="0.3593" stop-color="#B487FF"/>
<stop offset="1" stop-color="#FFC8FF"/>
</linearGradient>
<linearGradient id="paint5_linear_13841_30561" x1="315.5" y1="204" x2="267.257" y2="135.32" gradientUnits="userSpaceOnUse">
<stop stop-color="#6D4AFF" stop-opacity="0.05"/>
<stop offset="1" stop-color="#6D4AFF" stop-opacity="0"/>
</linearGradient>
<linearGradient id="paint6_linear_13841_30561" x1="447.126" y1="171.539" x2="118.119" y2="362.388" gradientUnits="userSpaceOnUse">
<stop stop-color="#EEBEFF"/>
<stop offset="1" stop-color="#6D4AFF"/>
</linearGradient>
<clipPath id="clip0_13841_30561">
<rect width="311" height="187" rx="10.1809" fill="white"/>
</clipPath>
<clipPath id="clip1_13841_30561">
<rect width="127" height="31" fill="white" transform="translate(93 62.5)"/>
</clipPath>
<clipPath id="clip2_13841_30561">
<rect width="30.48" height="31" fill="white" transform="translate(93 62.5001)"/>
</clipPath>
</defs>
</svg>
