<svg width="32" height="32" viewBox="0 0 32 32" fill="none" xmlns="http://www.w3.org/2000/svg">
<path fill-rule="evenodd" clip-rule="evenodd" d="M22.0002 10C22.0002 12.2091 20.2094 14 18.0002 14C15.7911 14 14.0002 12.2091 14.0002 10C14.0002 7.79086 15.7911 6 18.0002 6C20.2094 6 22.0002 7.79086 22.0002 10ZM24.0002 10C24.0002 13.3137 21.3139 16 18.0002 16C14.6865 16 12.0002 13.3137 12.0002 10C12.0002 6.68629 14.6865 4 18.0002 4C21.3139 4 24.0002 6.68629 24.0002 10ZM9.7112 21.9608C10.4508 20.7584 11.8004 20 13.2818 20H22.7187C24.2 20 25.5497 20.7584 26.2893 21.9608L27.8537 24.5043C28.2177 25.0963 27.8351 26 26.9201 26H9.08031C8.16535 26 7.78271 25.0963 8.14679 24.5043L9.7112 21.9608ZM8.00764 20.913C9.11921 19.1058 11.1213 18 13.2818 18H22.7187C24.8792 18 26.8812 19.1058 27.9928 20.913L29.5572 23.4565C30.7871 25.4561 29.3106 28 26.9201 28H9.08031C6.68987 28 5.21336 25.4561 6.44323 23.4565L8.00764 20.913Z" fill="#0C0C14"/>
<path d="M4.58601 13L3.1718 11.5858C2.78128 11.1953 2.78128 10.5621 3.1718 10.1716C3.56232 9.78105 4.19549 9.78105 4.58601 10.1716L6.00023 11.5858L7.41444 10.1716C7.80496 9.78105 8.43813 9.78105 8.82865 10.1716C9.21918 10.5621 9.21918 11.1953 8.82865 11.5858L7.41444 13L8.82865 14.4142C9.21918 14.8047 9.21918 15.4379 8.82865 15.8284C8.43813 16.219 7.80496 16.219 7.41444 15.8284L6.00023 14.4142L4.58601 15.8284C4.19549 16.219 3.56232 16.219 3.1718 15.8284C2.78128 15.4379 2.78128 14.8047 3.1718 14.4142L4.58601 13Z" fill="#0C0C14"/>
</svg>
