<svg width="24" height="24" viewBox="0 0 24 24" fill="none" xmlns="http://www.w3.org/2000/svg">
<path fill-rule="evenodd" clip-rule="evenodd" d="M6 3C4.34315 3 3 4.34315 3 6V18C3 19.6569 4.34315 21 6 21H18C19.6569 21 21 19.6569 21 18V12H16.5V7.5H12V3H6ZM13.5 3V6H16.5V3H13.5ZM18 3V6H21C21 4.34315 19.6569 3 18 3ZM21 7.5H18V10.5H21V7.5ZM1.5 6C1.5 3.51472 3.51472 1.5 6 1.5H18C20.4853 1.5 22.5 3.51472 22.5 6V18C22.5 20.4853 20.4853 22.5 18 22.5H6C3.51472 22.5 1.5 20.4853 1.5 18V6Z" fill="#0C0C14"/>
<path d="M6 14.25C6 13.8358 6.33579 13.5 6.75 13.5H9.75C10.1642 13.5 10.5 13.8358 10.5 14.25C10.5 14.6642 10.1642 15 9.75 15H6.75C6.33579 15 6 14.6642 6 14.25Z" fill="#0C0C14"/>
<path d="M6 17.25C6 16.8358 6.33579 16.5 6.75 16.5H12.75C13.1642 16.5 13.5 16.8358 13.5 17.25C13.5 17.6642 13.1642 18 12.75 18H6.75C6.33579 18 6 17.6642 6 17.25Z" fill="#0C0C14"/>
</svg>
