<svg width="311" height="187" viewBox="0 0 311 187" fill="none" xmlns="http://www.w3.org/2000/svg">
<g clip-path="url(#clip0_13986_29966)">
<path d="M0 11.2C0 5.5667 4.26243 1 9.52041 1H301.48C306.738 1 311 5.5667 311 11.2V177.8C311 183.433 306.738 188 301.48 188H9.5204C4.26243 188 0 183.433 0 177.8V11.2Z" fill="white"/>
<path d="M0 11.2C0 5.5667 4.26243 1 9.52041 1H301.48C306.738 1 311 5.5667 311 11.2V177.8C311 183.433 306.738 188 301.48 188H9.5204C4.26243 188 0 183.433 0 177.8V11.2Z" fill="url(#paint0_linear_13986_29966)" fill-opacity="0.08"/>
<path d="M358.108 362.001H43.5388C31.5336 362.001 22 352.48 22 340.492V134.299H380V340.492C379.647 352.128 370.113 362.001 358.108 362.001Z" fill="url(#paint1_linear_13986_29966)"/>
<path d="M22 134.299L200.312 260.096L380 134.299H22Z" fill="#4D34B3"/>
<path d="M380 134.299L210.906 16.438C204.55 11.854 196.076 11.854 189.72 16.438L22 134.299H380Z" fill="#4D34B3"/>
<path d="M328.857 170.143L200.313 260.093L73.1431 170.393V44.9208H328.857V170.143Z" fill="url(#paint2_linear_13986_29966)"/>
<path d="M100.5 118.739C100.5 112.464 104.907 107.5 110.202 107.5H343.5V185.261C343.5 191.536 339.093 196.5 333.798 196.5H100.5V118.739Z" fill="#6D4AFF" fill-opacity="0.03" stroke="#EDE8FF"/>
<path d="M126.697 130.33V136.5H125.57L122.886 132.616H122.841V136.5H121.536V130.33H122.681L125.344 134.21H125.399V130.33H126.697ZM129.495 136.59C128.07 136.59 127.199 135.674 127.199 134.207C127.199 132.779 128.082 131.812 129.444 131.812C130.667 131.812 131.619 132.589 131.619 134.162V134.515H128.468V134.518C128.468 135.207 128.875 135.632 129.516 135.632C129.944 135.632 130.275 135.449 130.405 135.096L131.592 135.174C131.411 136.033 130.64 136.59 129.495 136.59ZM128.468 133.719H130.411C130.408 133.168 130.022 132.77 129.465 132.77C128.896 132.77 128.495 133.192 128.468 133.719ZM132.972 136.5L131.712 131.872H133.011L133.728 134.982H133.77L134.517 131.872H135.792L136.551 134.963H136.59L137.295 131.872H138.591L137.334 136.5H135.975L135.18 133.59H135.123L134.327 136.5H132.972ZM140.509 136.5V131.872H141.793V136.5H140.509ZM141.154 131.276C140.774 131.276 140.461 130.984 140.461 130.625C140.461 130.269 140.774 129.977 141.154 129.977C141.537 129.977 141.85 130.269 141.85 130.625C141.85 130.984 141.537 131.276 141.154 131.276ZM144.917 131.872V132.836H144.047V135.078C144.047 135.433 144.225 135.53 144.481 135.53C144.601 135.53 144.737 135.5 144.8 135.488L145.002 136.443C144.872 136.485 144.637 136.551 144.306 136.563C143.375 136.602 142.757 136.154 142.763 135.247V132.836H142.131V131.872H142.763V130.764H144.047V131.872H144.917ZM147.448 136.59C146.023 136.59 145.152 135.674 145.152 134.207C145.152 132.779 146.035 131.812 147.397 131.812C148.62 131.812 149.572 132.589 149.572 134.162V134.515H146.421V134.518C146.421 135.207 146.827 135.632 147.469 135.632C147.897 135.632 148.228 135.449 148.358 135.096L149.545 135.174C149.364 136.033 148.593 136.59 147.448 136.59ZM146.421 133.719H148.364C148.361 133.168 147.975 132.77 147.418 132.77C146.848 132.77 146.448 133.192 146.421 133.719ZM150.045 136.5V131.872H151.268V132.689H151.322C151.515 132.143 151.988 131.812 152.612 131.812C153.247 131.812 153.72 132.152 153.868 132.689H153.916C154.106 132.159 154.633 131.812 155.311 131.812C156.173 131.812 156.769 132.384 156.769 133.388V136.5H155.489V133.641C155.489 133.126 155.182 132.87 154.772 132.87C154.305 132.87 154.031 133.195 154.031 133.674V136.5H152.786V133.614C152.786 133.159 152.503 132.87 152.081 132.87C151.654 132.87 151.328 133.21 151.328 133.722V136.5H150.045ZM162.868 133.192L161.693 133.264C161.629 132.966 161.364 132.722 160.918 132.722C160.521 132.722 160.207 132.903 160.21 133.18C160.207 133.403 160.367 133.55 160.798 133.644L161.635 133.813C162.533 133.996 162.97 134.397 162.973 135.066C162.97 135.979 162.111 136.59 160.912 136.59C159.686 136.59 158.933 136.045 158.812 135.159L160.075 135.093C160.153 135.47 160.457 135.665 160.915 135.665C161.364 135.665 161.662 135.47 161.668 135.195C161.662 134.963 161.479 134.816 161.075 134.734L160.274 134.575C159.37 134.394 158.933 133.945 158.936 133.252C158.933 132.36 159.713 131.812 160.897 131.812C162.066 131.812 162.753 132.339 162.868 133.192ZM164.7 133.825V136.5H163.416V130.33H164.664V132.689H164.718C164.929 132.143 165.399 131.812 166.101 131.812C167.065 131.812 167.704 132.469 167.701 133.553V136.5H166.417V133.782C166.42 133.213 166.113 132.879 165.592 132.879C165.067 132.879 164.703 133.228 164.7 133.825ZM169.666 136.587C168.783 136.587 168.129 136.123 168.129 135.207C168.129 134.174 168.951 133.867 169.867 133.782C170.672 133.704 170.988 133.665 170.988 133.367V133.349C170.988 132.969 170.738 132.749 170.301 132.749C169.84 132.749 169.566 132.975 169.479 133.282L168.292 133.186C168.469 132.342 169.199 131.812 170.307 131.812C171.338 131.812 172.272 132.276 172.272 133.379V136.5H171.054V135.858H171.018C170.792 136.289 170.349 136.587 169.666 136.587ZM170.033 135.702C170.596 135.702 170.997 135.331 170.997 134.846V134.355C170.844 134.457 170.386 134.524 170.105 134.563C169.653 134.626 169.355 134.804 169.355 135.165C169.355 135.518 169.638 135.702 170.033 135.702ZM172.903 136.5V131.872H174.147V132.68H174.195C174.364 132.107 174.789 131.806 175.307 131.806C175.436 131.806 175.596 131.824 175.71 131.851V132.99C175.59 132.951 175.346 132.921 175.168 132.921C174.602 132.921 174.186 133.312 174.186 133.882V136.5H172.903ZM177.903 136.59C176.478 136.59 175.607 135.674 175.607 134.207C175.607 132.779 176.49 131.812 177.852 131.812C179.075 131.812 180.027 132.589 180.027 134.162V134.515H176.875V134.518C176.875 135.207 177.282 135.632 177.924 135.632C178.352 135.632 178.683 135.449 178.813 135.096L180 135.174C179.819 136.033 179.048 136.59 177.903 136.59ZM176.875 133.719H178.819C178.816 133.168 178.43 132.77 177.873 132.77C177.303 132.77 176.903 133.192 176.875 133.719ZM182.205 136.575C181.15 136.575 180.328 135.741 180.328 134.192C180.328 132.601 181.187 131.812 182.202 131.812C182.976 131.812 183.347 132.273 183.518 132.65H183.558V130.33H184.838V136.5H183.573V135.759H183.518C183.341 136.144 182.952 136.575 182.205 136.575ZM182.612 135.554C183.229 135.554 183.585 135.012 183.585 134.186C183.585 133.361 183.235 132.833 182.612 132.833C181.976 132.833 181.638 133.385 181.638 134.186C181.638 134.994 181.982 135.554 182.612 135.554ZM188.04 136.5L186.781 131.872H188.079L188.796 134.982H188.839L189.586 131.872H190.86L191.619 134.963H191.659L192.364 131.872H193.659L192.403 136.5H191.044L190.249 133.59H190.191L189.396 136.5H188.04ZM193.979 136.5V131.872H195.262V136.5H193.979ZM194.624 131.276C194.244 131.276 193.931 130.984 193.931 130.625C193.931 130.269 194.244 129.977 194.624 129.977C195.006 129.977 195.32 130.269 195.32 130.625C195.32 130.984 195.006 131.276 194.624 131.276ZM198.387 131.872V132.836H197.516V135.078C197.516 135.433 197.694 135.53 197.95 135.53C198.071 135.53 198.206 135.5 198.27 135.488L198.472 136.443C198.342 136.485 198.107 136.551 197.776 136.563C196.845 136.602 196.227 136.154 196.233 135.247V132.836H195.6V131.872H196.233V130.764H197.516V131.872H198.387ZM200.241 133.825V136.5H198.958V130.33H200.205V132.689H200.259C200.47 132.143 200.94 131.812 201.642 131.812C202.606 131.812 203.245 132.469 203.242 133.553V136.5H201.959V133.782C201.962 133.213 201.654 132.879 201.133 132.879C200.609 132.879 200.244 133.228 200.241 133.825ZM206.278 138.235C205.953 138.235 205.655 138.181 205.471 138.103L205.76 137.145C206.212 137.283 206.535 137.262 206.703 136.828L206.779 136.633L205.119 131.872H206.468L207.426 135.271H207.475L208.442 131.872H209.8L208.002 137C207.74 137.747 207.234 138.235 206.278 138.235ZM212.026 136.59C210.622 136.59 209.748 135.629 209.748 134.204C209.748 132.77 210.622 131.812 212.026 131.812C213.43 131.812 214.304 132.77 214.304 134.204C214.304 135.629 213.43 136.59 212.026 136.59ZM212.032 135.596C212.668 135.596 212.999 135.003 212.999 134.195C212.999 133.388 212.668 132.791 212.032 132.791C211.384 132.791 211.053 133.388 211.053 134.195C211.053 135.003 211.384 135.596 212.032 135.596ZM217.741 134.53V131.872H219.024V136.5H217.792V135.659H217.744C217.536 136.202 217.036 136.56 216.34 136.56C215.409 136.56 214.776 135.9 214.773 134.819V131.872H216.057V134.59C216.06 135.135 216.373 135.476 216.858 135.476C217.319 135.476 217.744 135.15 217.741 134.53Z" fill="#C4B7FF"/>
<path d="M115.5 167.291C115.5 163.081 119.747 159.5 125.216 159.5H343.5V188.709C343.5 192.919 339.253 196.5 333.784 196.5H115.5V167.291Z" fill="white" stroke="#E2DBFF"/>
<path d="M152.984 176V177.694L151.508 176.847L151 177.734L152.476 178.581L151 179.427L151.508 180.315L152.984 179.468V181.161H154.016V179.468L155.492 180.315L156 179.427L154.524 178.581L156 177.734L155.492 176.847L154.016 177.694V176H152.984Z" fill="#DADBE0"/>
<path d="M159.984 176V177.694L158.508 176.847L158 177.734L159.476 178.581L158 179.427L158.508 180.315L159.984 179.468V181.161H161.016V179.468L162.492 180.315L163 179.427L161.524 178.581L163 177.734L162.492 176.847L161.016 177.694V176H159.984Z" fill="#DADBE0"/>
<path d="M166.984 176V177.694L165.508 176.847L165 177.734L166.476 178.581L165 179.427L165.508 180.315L166.984 179.468V181.161H168.016V179.468L169.492 180.315L170 179.427L168.524 178.581L170 177.734L169.492 176.847L168.016 177.694V176H166.984Z" fill="#DADBE0"/>
<path d="M173.984 176V177.694L172.508 176.847L172 177.734L173.476 178.581L172 179.427L172.508 180.315L173.984 179.468V181.161H175.016V179.468L176.492 180.315L177 179.427L175.524 178.581L177 177.734L176.492 176.847L175.016 177.694V176H173.984Z" fill="#DADBE0"/>
<rect x="128.789" y="171.484" width="13.5746" height="13.5746" rx="1.69682" fill="#DADBE0"/>
<path d="M133.031 176.15H138.121M133.031 178.271H136.424M133.031 180.392H138.121" stroke="#3A3F4A" stroke-width="0.848412" stroke-linecap="round"/>
<g clip-path="url(#clip1_13986_29966)">
<path d="M186.242 73.2256C187.128 73.7254 187.861 74.4615 188.365 75.3577C188.865 76.2736 189.127 77.3052 189.127 78.354C189.127 79.4029 188.865 80.4344 188.365 81.3503C187.863 82.2514 187.128 82.9925 186.242 83.4948C185.294 84.0266 184.226 84.2949 183.145 84.2728H179.331V72.4451H183.145C184.226 72.423 185.294 72.6938 186.242 73.2256ZM183.273 82.1653C183.919 82.1776 184.556 82.0077 185.116 81.6753C185.673 81.3429 186.131 80.8579 186.438 80.2793C186.744 79.686 186.906 79.0262 186.906 78.3565C186.906 77.6868 186.747 77.027 186.438 76.4336C186.136 75.8674 185.692 75.3946 185.147 75.0647C184.58 74.7225 183.931 74.5502 183.27 74.56H181.505V82.1505L183.273 82.1653Z" fill="#6D4AFF"/>
<path d="M190.08 79.4619C190.042 78.5337 190.355 77.6277 190.956 76.926C191.545 76.2785 192.372 75.9535 193.443 75.9535C193.803 75.951 194.162 75.9929 194.514 76.0741V78.0487C194.345 78.0487 194.152 78.0315 193.938 78.0315C193.349 78.0315 192.917 78.1693 192.645 78.4475C192.498 78.6199 192.387 78.8218 192.317 79.0384C192.247 79.2551 192.22 79.4841 192.237 79.713V84.2703H190.092L190.08 79.4619Z" fill="#6D4AFF"/>
<path d="M195.385 74.4295C195.257 74.3089 195.156 74.1636 195.086 74.0011C195.016 73.8386 194.982 73.6638 194.985 73.4865C194.982 73.3068 195.018 73.132 195.086 72.9671C195.156 72.8021 195.257 72.6544 195.385 72.5337C195.51 72.4057 195.658 72.3048 195.822 72.2358C195.986 72.1669 196.162 72.1324 196.338 72.1349C196.514 72.1324 196.688 72.1669 196.849 72.2358C197.011 72.3048 197.158 72.4057 197.281 72.5337C197.409 72.6544 197.51 72.8021 197.58 72.9671C197.65 73.132 197.684 73.3093 197.682 73.4865C197.684 73.6638 197.65 73.8386 197.58 74.0011C197.51 74.1636 197.409 74.3089 197.281 74.4295C197.158 74.5551 197.011 74.6536 196.849 74.72C196.688 74.7865 196.514 74.821 196.34 74.8185C196.164 74.821 195.988 74.789 195.827 74.7225C195.66 74.6536 195.51 74.5551 195.385 74.4295ZM197.414 84.2604H195.269V76.116H197.414V84.2604Z" fill="#6D4AFF"/>
<path d="M200.861 84.2604L197.822 76.116H200.079L201.471 80.2768C201.686 81.0056 201.811 81.4414 201.845 81.594H201.879C201.98 81.2026 202.118 80.7619 202.27 80.2768L203.662 76.116H205.937L202.897 84.2604H200.861Z" fill="#6D4AFF"/>
<path d="M213.813 80.9341H207.787C207.881 81.4265 208.141 81.8721 208.52 82.1922C208.899 82.4926 209.367 82.6501 209.844 82.6354C210.228 82.6501 210.609 82.5812 210.964 82.4359C211.244 82.2981 211.47 82.074 211.618 81.7934H213.603C213.395 82.6034 212.898 83.305 212.211 83.7581C211.519 84.216 210.711 84.4524 209.886 84.4425C209.13 84.4597 208.383 84.2702 207.722 83.8984C207.104 83.5463 206.598 83.0195 206.26 82.3818C205.91 81.7072 205.731 80.9563 205.744 80.193C205.731 79.4298 205.912 78.6739 206.269 78.0043C206.607 77.3691 207.114 76.8447 207.729 76.4877C208.375 76.1208 209.104 75.9386 209.84 75.9559C210.561 75.946 211.273 76.138 211.895 76.5098C212.5 76.8742 212.995 77.4011 213.325 78.0338C213.675 78.6986 213.854 79.4446 213.844 80.198C213.849 80.4442 213.837 80.6904 213.813 80.9341ZM208.498 78.2135C208.132 78.5188 207.876 78.9398 207.77 79.4101H211.823C211.76 78.9472 211.526 78.5238 211.169 78.2308C210.795 77.9181 210.322 77.7507 209.837 77.763C209.352 77.7482 208.88 77.9083 208.498 78.2135Z" fill="#6D4AFF"/>
<path d="M128.437 81.0956V84.2515H130.603V81.2334C130.603 80.9405 130.716 80.6574 130.921 80.4506C131.123 80.2438 131.4 80.1256 131.687 80.1256H133.909C134.944 80.1256 135.938 79.7047 136.67 78.9538C137.402 78.2055 137.813 77.1888 137.813 76.1302C137.813 75.0716 137.402 74.0549 136.67 73.3041C135.938 72.5557 134.944 72.1348 133.906 72.1348H128.437V76.0785H130.603V74.2199H133.762C134.253 74.2199 134.722 74.4193 135.069 74.7738C135.416 75.1283 135.611 75.6083 135.611 76.1105C135.611 76.6127 135.416 77.0927 135.069 77.4472C134.722 77.8017 134.253 78.0011 133.762 78.0011H131.467C131.07 78.0011 130.675 78.0799 130.309 78.2375C129.941 78.3926 129.609 78.6215 129.327 78.9095C129.046 79.1976 128.824 79.5397 128.67 79.9139C128.516 80.2856 128.437 80.6894 128.437 81.0956Z" fill="#1B1340"/>
<path d="M138.148 84.2515V79.4437C138.148 77.4817 139.267 75.9209 141.509 75.9209C141.867 75.916 142.226 75.9554 142.578 76.0416V78.0184C142.322 78.0011 142.103 78.0011 142 78.0011C140.813 78.0011 140.303 78.5575 140.303 79.685V84.2515H138.148Z" fill="#1B1340"/>
<path d="M143.223 80.1749C143.223 77.7624 145.004 75.9234 147.484 75.9234C149.964 75.9234 151.745 77.7624 151.745 80.1749C151.745 82.5874 149.964 84.4436 147.484 84.4436C145.004 84.4436 143.223 82.585 143.223 80.1749ZM149.622 80.1749C149.622 78.8037 148.721 77.8313 147.484 77.8313C146.244 77.8313 145.346 78.8012 145.346 80.1749C145.346 81.5633 146.246 82.5185 147.484 82.5185C148.724 82.5185 149.622 81.5609 149.622 80.1749Z" fill="#1B1340"/>
<path d="M158.635 80.1749C158.635 77.7624 160.417 75.9234 162.896 75.9234C165.373 75.9234 167.155 77.7624 167.155 80.1749C167.155 82.5874 165.373 84.4436 162.896 84.4436C160.417 84.4436 158.635 82.585 158.635 80.1749ZM165.032 80.1749C165.032 78.8037 164.131 77.8313 162.894 77.8313C161.656 77.8313 160.756 78.8012 160.756 80.1749C160.756 81.5633 161.656 82.5185 162.894 82.5185C164.131 82.5185 165.032 81.5609 165.032 80.1749Z" fill="#1B1340"/>
<path d="M168.274 84.2516V79.6185C168.274 77.467 169.615 75.921 172.008 75.921C174.384 75.921 175.725 77.4645 175.725 79.6185V84.2516H173.588V79.7909C173.588 78.5945 173.06 77.8461 172.008 77.8461C170.956 77.8461 170.429 78.592 170.429 79.7909V84.2516H168.274Z" fill="#1B1340"/>
<path d="M157.99 77.8484H155.664V80.8862C155.664 81.9448 156.037 82.4298 157.106 82.4298C157.207 82.4298 157.463 82.4298 157.785 82.4125V84.1998C157.345 84.3204 156.955 84.3918 156.529 84.3918C154.73 84.3918 153.507 83.2815 153.507 81.1816V77.8484H152.063V76.0956H152.424C152.566 76.0956 152.708 76.0661 152.838 76.0119C152.97 75.9553 153.088 75.8741 153.19 75.7707C153.291 75.6673 153.37 75.5467 153.425 75.4113C153.481 75.2759 153.507 75.1331 153.507 74.9879V73.336H155.662V76.0956H157.987V77.8484H157.99Z" fill="#1B1340"/>
<g clip-path="url(#clip2_13986_29966)">
<path d="M93 71.1112C93 66.3554 96.7907 62.5001 101.467 62.5001H115.013C119.689 62.5001 123.48 66.3554 123.48 71.1112V84.889C123.48 89.6448 119.689 93.5001 115.013 93.5001H101.467C96.7907 93.5001 93 89.6448 93 84.889V71.1112Z" fill="white"/>
<path d="M98.9268 72.2799L101.588 70.9268L106.244 73.6331H114.227L114.227 85.0736L113.562 85.7502H100.922C99.8203 85.7502 98.9268 84.8414 98.9268 83.7204L98.9268 72.2799Z" fill="url(#paint3_radial_13986_29966)"/>
<path fill-rule="evenodd" clip-rule="evenodd" d="M106.218 71.2151C106.56 71.4674 106.971 71.6033 107.392 71.6033L115.558 71.6033C116.66 71.6033 117.553 72.5121 117.553 73.6331V83.7204C117.553 84.8414 116.66 85.7501 115.558 85.7501H113.562V76.0011C113.562 75.0669 112.817 74.3096 111.899 74.3096H104.914C104.482 74.3096 104.062 74.1672 103.716 73.9037L102.12 72.6858C101.774 72.4223 101.354 72.2799 100.922 72.2799L98.9268 72.2799C98.9268 71.1589 99.8203 70.2501 100.922 70.2501H104.265C104.687 70.2501 105.098 70.386 105.439 70.6383L106.218 71.2151Z" fill="url(#paint4_linear_13986_29966)"/>
</g>
</g>
<path d="M22 13H357V192C357 198.627 351.627 204 345 204H22V13Z" fill="url(#paint5_linear_13986_29966)"/>
<path fill-rule="evenodd" clip-rule="evenodd" d="M56.4102 361.735H357.086C369.092 361.735 378.625 351.862 378.978 340.226V135.017L56.4102 361.735Z" fill="url(#paint6_linear_13986_29966)"/>
</g>
<defs>
<linearGradient id="paint0_linear_13986_29966" x1="-12.2384" y1="-5.82481" x2="318.648" y2="192.604" gradientUnits="userSpaceOnUse">
<stop stop-color="#ECAAFF"/>
<stop offset="1" stop-color="#6A48F6"/>
</linearGradient>
<linearGradient id="paint1_linear_13986_29966" x1="174.363" y1="157.707" x2="22.2672" y2="362.199" gradientUnits="userSpaceOnUse">
<stop stop-color="#EEBEFF"/>
<stop offset="1" stop-color="#6D4AFF"/>
</linearGradient>
<linearGradient id="paint2_linear_13986_29966" x1="200.489" y1="44.2932" x2="200.489" y2="260.093" gradientUnits="userSpaceOnUse">
<stop stop-color="white"/>
<stop offset="1" stop-color="#FFF3EF"/>
</linearGradient>
<radialGradient id="paint3_radial_13986_29966" cx="0" cy="0" r="1" gradientUnits="userSpaceOnUse" gradientTransform="translate(115.509 60.7433) scale(28.5505 30.6925)">
<stop offset="0.5561" stop-color="#6D4AFF"/>
<stop offset="1" stop-color="#FF50C3"/>
</radialGradient>
<linearGradient id="paint4_linear_13986_29966" x1="98.6812" y1="62.161" x2="122.104" y2="87.7607" gradientUnits="userSpaceOnUse">
<stop stop-color="#7341FF"/>
<stop offset="0.3593" stop-color="#B487FF"/>
<stop offset="1" stop-color="#FFC8FF"/>
</linearGradient>
<linearGradient id="paint5_linear_13986_29966" x1="315.5" y1="204" x2="267.257" y2="135.32" gradientUnits="userSpaceOnUse">
<stop stop-color="#6D4AFF" stop-opacity="0.05"/>
<stop offset="1" stop-color="#6D4AFF" stop-opacity="0"/>
</linearGradient>
<linearGradient id="paint6_linear_13986_29966" x1="447.126" y1="171.539" x2="118.119" y2="362.388" gradientUnits="userSpaceOnUse">
<stop stop-color="#EEBEFF"/>
<stop offset="1" stop-color="#6D4AFF"/>
</linearGradient>
<clipPath id="clip0_13986_29966">
<rect width="311" height="187" rx="10.1809" fill="white"/>
</clipPath>
<clipPath id="clip1_13986_29966">
<rect width="127" height="31" fill="white" transform="translate(93 62.5)"/>
</clipPath>
<clipPath id="clip2_13986_29966">
<rect width="30.48" height="31" fill="white" transform="translate(93 62.5001)"/>
</clipPath>
</defs>
</svg>
