<svg width="199" height="154" viewBox="0 0 199 154" fill="none" xmlns="http://www.w3.org/2000/svg">
<g filter="url(#filter0_di_10393_15519)">
<path d="M142.709 57.5981C142.709 60.0469 142.459 62.4349 141.985 64.7356C154.239 65.0925 164.068 75.5892 164.068 88.4859C164.068 100.804 155.101 110.933 143.618 112.128V112.246H48.1644C36.8965 110.84 28.1605 100.644 28.1605 88.4856C28.1605 75.6042 37.966 65.117 50.1994 64.7366C51.7389 53.4474 61.0238 44.7677 72.2479 44.7677C74.9895 44.7677 77.6153 45.2856 80.0409 46.2328C84.5032 33.191 96.4275 23.8594 110.437 23.8594C128.26 23.8594 142.709 38.9647 142.709 57.5981Z" fill="url(#paint0_linear_10393_15519)"/>
<path d="M142.709 57.5981C142.709 60.0469 142.459 62.4349 141.985 64.7356C154.239 65.0925 164.068 75.5892 164.068 88.4859C164.068 100.804 155.101 110.933 143.618 112.128V112.246H48.1644C36.8965 110.84 28.1605 100.644 28.1605 88.4856C28.1605 75.6042 37.966 65.117 50.1994 64.7366C51.7389 53.4474 61.0238 44.7677 72.2479 44.7677C74.9895 44.7677 77.6153 45.2856 80.0409 46.2328C84.5032 33.191 96.4275 23.8594 110.437 23.8594C128.26 23.8594 142.709 38.9647 142.709 57.5981Z" fill="url(#paint1_linear_10393_15519)" fill-opacity="0.3"/>
</g>
<path d="M164.639 51.2089C164.537 49.9897 164.396 48.7805 164.216 47.5829L165.111 47.4486C164.927 46.2189 164.703 45.0012 164.44 43.7972L163.555 43.9903C163.295 42.7966 162.995 41.6166 162.659 40.4518L163.529 40.2007C163.184 39.0073 162.801 37.8297 162.381 36.6696L161.53 36.9779C161.114 35.83 160.661 34.6995 160.173 33.5883L161.001 33.2242C160.502 32.0881 159.967 30.9718 159.396 29.8769L158.593 30.2953C158.029 29.2134 157.43 28.1529 156.798 27.1155L157.571 26.6444C156.926 25.5856 156.246 24.5505 155.534 23.5408L154.794 24.0626C154.091 23.0664 153.356 22.0955 152.589 21.1516L153.292 20.581C152.511 19.619 151.698 18.6846 150.855 17.7796L150.193 18.3967C149.362 17.5054 148.502 16.6432 147.613 15.812L148.231 15.1509C147.327 14.3049 146.393 13.4903 145.432 12.7092L144.861 13.4115C143.917 12.6439 142.945 11.9091 141.949 11.2089L142.469 10.4682C141.456 9.75693 140.418 9.08074 139.354 8.44157L138.888 9.2173C137.846 8.59109 136.781 8.00109 135.693 7.44912L136.103 6.64196C135.001 6.08256 133.876 5.5615 132.729 5.08061L132.379 5.91527C131.261 5.446 130.122 5.01571 128.964 4.62615L129.252 3.76825C128.082 3.37471 126.893 3.022 125.686 2.71189L125.461 3.58855C124.289 3.28742 123.1 3.02718 121.896 2.80948L122.057 1.91876C120.845 1.69973 119.617 1.52302 118.375 1.39026L118.279 2.29027C117.079 2.16196 115.865 2.07542 114.639 2.03219L114.671 1.12761C114.053 1.10584 113.433 1.09486 112.809 1.09486C112.175 1.09486 111.543 1.10633 110.914 1.12907L110.947 2.03362C109.695 2.07889 108.456 2.16958 107.231 2.30402L107.132 1.40428C105.867 1.54318 104.616 1.72795 103.381 1.95684L103.546 2.84682C102.318 3.07445 101.106 3.34648 99.9123 3.66109L99.6817 2.78581C98.4536 3.10935 97.2439 3.47712 96.0541 3.8872L96.349 4.74294C95.1706 5.14909 94.0119 5.59751 92.8746 6.08628L92.5173 5.25468C91.3528 5.75512 90.2104 6.29707 89.0917 6.87855L89.5091 7.68168C88.4053 8.2554 87.3248 8.86831 86.2692 9.51845L85.7945 8.74775C84.7174 9.41118 83.6658 10.1126 82.6414 10.8501L83.1702 11.5847C82.1618 12.3106 81.1802 13.072 80.2268 13.867L79.6471 13.1718C78.677 13.9808 77.7357 14.8238 76.8249 15.6989L77.452 16.3516C76.5569 17.2117 75.6917 18.1032 74.858 19.0243L74.1869 18.4169C73.3401 19.3524 72.5254 20.3178 71.7441 21.3111L72.4556 21.8706C71.6887 22.8457 70.9547 23.8481 70.2551 24.8759L69.5069 24.3666C69.1742 24.8552 68.8493 25.3495 68.5321 25.8493L68.5341 25.5179C68.454 25.5175 68.3739 25.5172 68.2938 25.5172C67.7116 25.5172 67.1328 25.5295 66.5574 25.5537L66.5955 26.458C65.4525 26.5061 64.3239 26.6025 63.2114 26.7452L63.0963 25.8474C61.9378 25.9959 60.796 26.1935 59.6729 26.4378L59.8653 27.3223C58.7516 27.5645 57.6568 27.8538 56.5825 28.1878L56.3138 27.3235C55.202 27.6691 54.1117 28.0616 53.0449 28.4983L53.3878 29.3359C52.3359 29.7665 51.3073 30.2412 50.3038 30.7575L49.8897 29.9526C48.8573 30.4838 47.8509 31.0579 46.8725 31.6725L47.354 32.439C46.3939 33.042 45.4613 33.685 44.5581 34.3653L44.0135 33.6422C43.0883 34.3391 42.1934 35.0741 41.3307 35.8447L41.9336 36.5198C41.0893 37.2739 40.2765 38.063 39.4969 38.8844L38.8404 38.2614C38.0445 39.1 37.2827 39.9716 36.5569 40.8735L37.2621 41.4409C36.5532 42.3219 35.8793 43.2326 35.2423 44.1703L34.4936 43.6617C33.8448 44.6168 33.2336 45.5994 32.6619 46.6069L33.4491 47.0536C32.8914 48.0363 32.3721 49.0431 31.893 50.0718L31.0725 49.6896C30.8872 50.0874 30.7078 50.4884 30.5343 50.8924C30.0538 51.0516 29.5774 51.2194 29.1053 51.3956L29.4219 52.2436C28.2366 52.6861 27.0789 53.1832 25.9513 53.7316L25.5555 52.9176C24.3938 53.4826 23.2634 54.1007 22.1669 54.7686L22.6378 55.5416C21.5606 56.1977 20.5166 56.9031 19.5085 57.6543L18.9677 56.9285C17.9349 57.698 16.939 58.5145 15.9826 59.3745L16.5878 60.0475C15.6518 60.8892 14.7542 61.7736 13.8977 62.6973L13.234 62.0818C12.3602 63.0241 11.5283 64.0064 10.7409 65.0251L11.457 65.5787C10.6883 66.5732 9.96283 67.6033 9.28302 68.6658L8.52059 68.1779C7.82917 69.2585 7.18406 70.3718 6.58779 71.5144L7.39023 71.9331C6.80933 73.0462 6.27573 74.1878 5.79184 75.3546L4.95575 75.0078C4.46508 76.191 4.0245 77.3995 3.63643 78.6302L4.49967 78.9024C4.12272 80.0978 3.79635 81.3145 3.52288 82.5495L2.63914 82.3538C2.36271 83.6022 2.13923 84.8689 1.971 86.1507L2.86845 86.2685C2.70563 87.5091 2.59566 88.7642 2.54069 90.0309L1.6364 89.9917C1.60863 90.6315 1.59461 91.2742 1.59461 91.9195C1.59461 92.5728 1.60913 93.2235 1.63789 93.871L2.54214 93.8309C2.59909 95.1134 2.71306 96.3835 2.88172 97.6383L1.98465 97.7589C2.15905 99.0563 2.39073 100.338 2.67723 101.6L3.55993 101.4C3.84331 102.649 4.18145 103.878 4.57188 105.086L3.71064 105.364C4.11248 106.607 4.56855 107.827 5.07626 109.02L5.90919 108.666C6.40934 109.842 6.96066 110.992 7.56057 112.113L6.76252 112.54C7.37772 113.69 8.04296 114.809 8.75557 115.896L9.51242 115.399C10.2122 116.466 10.9587 117.5 11.7492 118.499L11.0396 119.061C11.8479 120.081 12.7013 121.065 13.5971 122.009L14.2536 121.386C15.1308 122.31 16.0494 123.195 17.0068 124.037L16.4089 124.717C17.3852 125.576 18.4011 126.391 19.4539 127.16L19.9878 126.43C21.0148 127.18 22.0777 127.885 23.1738 128.541L22.7088 129.317C23.8225 129.984 24.9698 130.602 26.1482 131.167L26.5398 130.351C27.6837 130.9 28.8574 131.399 30.0583 131.844L29.7438 132.693C30.9578 133.143 32.1991 133.539 33.4652 133.879L33.6999 133.005C34.9216 133.333 36.1668 133.607 37.4334 133.825L37.2801 134.717C37.919 134.827 38.5632 134.922 39.2123 135.003L39.2682 135.01H39.3246H41.1689V134.105H44.8575V135.01H48.546V134.105H52.2346V135.01H55.9231V134.105H59.6117V135.01H63.3002V134.105H66.9888V135.01H70.6773V134.105H74.3659V135.01H78.0544V134.105H81.743V135.01H85.4315V134.105H89.1201V135.01H92.8086V134.105H96.4972V135.01H100.186V134.105H103.874V135.01H107.563V134.105H111.251V135.01H114.94V134.105H118.629V135.01H122.317V134.105H126.006V135.01H129.694V134.105H133.383V135.01H137.071V134.105H140.76V135.01H144.448V134.105H148.137V135.01H151.825V134.105H155.514V135.01H157.358C158.065 135.01 158.776 134.995 159.487 134.96L159.443 134.056C160.836 133.988 162.225 133.846 163.586 133.605L163.744 134.497C165.168 134.245 166.57 133.887 167.924 133.395L167.614 132.544C168.922 132.068 170.175 131.463 171.346 130.703L171.839 131.462C172.448 131.066 173.038 130.63 173.604 130.15C174.061 129.763 174.51 129.363 174.952 128.952L174.335 128.289C175.188 127.495 176.012 126.655 176.805 125.776L177.477 126.382C178.275 125.498 179.042 124.574 179.776 123.617L179.058 123.066C179.769 122.14 180.449 121.18 181.097 120.192L181.854 120.688C182.507 119.693 183.128 118.669 183.715 117.621L182.925 117.179C183.498 116.157 184.038 115.113 184.545 114.049L185.362 114.438C185.875 113.361 186.353 112.265 186.796 111.155L185.956 110.819C186.391 109.728 186.791 108.622 187.156 107.506L188.016 107.786C188.387 106.648 188.721 105.5 189.016 104.345L188.139 104.121C188.432 102.979 188.685 101.83 188.899 100.68L189.789 100.845C190.008 99.6635 190.187 98.4796 190.322 97.2978L189.422 97.195C189.557 96.0193 189.648 94.8463 189.694 93.6808L190.598 93.7164C190.622 93.1156 190.634 92.5165 190.634 91.9197C190.634 91.3234 190.622 90.7293 190.598 90.1376L189.694 90.1739C189.647 89.0033 189.553 87.8425 189.413 86.6938L190.312 86.5849C190.168 85.3988 189.977 84.2254 189.741 83.067L188.854 83.248C188.62 82.1025 188.341 80.9721 188.018 79.8591L188.887 79.6069C188.555 78.4614 188.178 77.334 187.757 76.2272L186.911 76.5488C186.496 75.4574 186.038 74.3864 185.539 73.3385L186.356 72.9493C185.844 71.8736 185.289 70.8217 184.694 69.7961L183.911 70.2505C183.326 69.2418 182.701 68.2593 182.037 67.3054L182.78 66.7887C182.101 65.8113 181.382 64.8633 180.626 63.9475L179.928 64.5236C179.187 63.6251 178.409 62.7583 177.596 61.9258L178.244 61.2937C177.414 60.4424 176.548 59.6261 175.648 58.8476L175.056 59.532C174.176 58.7706 173.264 58.0463 172.322 57.3617L172.854 56.6294C171.893 55.9311 170.9 55.2731 169.879 54.6582L169.412 55.4337C168.417 54.8348 167.395 54.2778 166.346 53.7652L166.743 52.952C166.377 52.7728 166.007 52.5989 165.634 52.4304C165.608 51.997 165.577 51.5648 165.541 51.1338L164.639 51.2089ZM68.9986 26.4286C68.8422 26.4258 68.6856 26.424 68.5287 26.4231L68.5313 25.99L69.0012 26.2867L68.9986 26.4286Z" fill="url(#paint2_linear_10393_15519)" stroke="#DC3251" stroke-width="1.81028" stroke-dasharray="3.62 3.62"/>
<g filter="url(#filter1_f_10393_15519)">
<path d="M132.527 60.5193C132.527 62.2835 132.347 64.0038 132.006 65.6613C140.832 65.9184 147.911 73.4806 147.911 82.7718C147.911 91.6463 141.452 98.9435 133.182 99.8041V99.8895H64.4282C56.3121 98.8761 50.0198 91.531 50.0198 82.7716C50.0198 73.4914 57.0824 65.9361 65.894 65.6621C67.0028 57.529 73.6905 51.2759 81.775 51.2759C83.7497 51.2759 85.6411 51.649 87.3882 52.3314C90.6023 42.9357 99.1911 36.2129 109.282 36.2129C122.119 36.2129 132.527 47.0952 132.527 60.5193Z" fill="url(#paint3_linear_10393_15519)" fill-opacity="0.4"/>
</g>
<g filter="url(#filter2_d_10393_15519)">
<path d="M177.374 91.3393C177.374 75.0677 164.183 61.877 147.911 61.877C131.64 61.877 118.449 75.0677 118.449 91.3393C118.449 107.611 131.64 120.802 147.911 120.802C164.183 120.802 177.374 107.611 177.374 91.3393Z" fill="#DC3251"/>
</g>
<g filter="url(#filter3_i_10393_15519)">
<path d="M177.374 91.3393C177.374 75.0677 164.183 61.877 147.911 61.877C131.64 61.877 118.449 75.0677 118.449 91.3393C118.449 107.611 131.64 120.802 147.911 120.802C164.183 120.802 177.374 107.611 177.374 91.3393Z" fill="#DC3251"/>
</g>
<path fill-rule="evenodd" clip-rule="evenodd" d="M138.327 78.8277H158.127C159.221 78.8277 160.107 79.7141 160.107 80.8077L160.107 85.7576C160.107 86.8512 159.221 87.7376 158.127 87.7376H138.327C137.234 87.7376 136.347 86.8512 136.347 85.7576L136.347 80.8077C136.347 79.7141 137.234 78.8277 138.327 78.8277ZM134.367 80.8077C134.367 78.6206 136.14 76.8477 138.327 76.8477H158.127C160.314 76.8477 162.087 78.6206 162.087 80.8077L162.087 85.7576C162.087 87.9447 160.314 89.7176 158.127 89.7176H138.327C136.14 89.7176 134.367 87.9447 134.367 85.7576V80.8077ZM138.327 93.6776H158.127C159.221 93.6776 160.107 94.5641 160.107 95.6576L160.107 100.608C160.107 101.701 159.221 102.588 158.127 102.588H138.327C137.234 102.588 136.347 101.701 136.347 100.608L136.347 95.6576C136.347 94.5641 137.234 93.6776 138.327 93.6776ZM134.367 95.6576C134.367 93.4706 136.14 91.6976 138.327 91.6976H158.127C160.314 91.6976 162.087 93.4706 162.087 95.6576L162.087 100.608C162.087 102.795 160.314 104.568 158.127 104.568H138.327C136.14 104.568 134.367 102.795 134.367 100.608V95.6576ZM158.127 83.7776C158.127 84.3244 157.684 84.7676 157.137 84.7676C156.59 84.7676 156.147 84.3244 156.147 83.7776C156.147 83.2309 156.59 82.7876 157.137 82.7876C157.684 82.7876 158.127 83.2309 158.127 83.7776ZM157.137 99.6176C157.684 99.6176 158.127 99.1744 158.127 98.6276C158.127 98.0809 157.684 97.6376 157.137 97.6376C156.59 97.6376 156.147 98.0809 156.147 98.6276C156.147 99.1744 156.59 99.6176 157.137 99.6176ZM154.167 83.7776C154.167 84.3244 153.724 84.7676 153.177 84.7676C152.63 84.7676 152.187 84.3244 152.187 83.7776C152.187 83.2309 152.63 82.7876 153.177 82.7876C153.724 82.7876 154.167 83.2309 154.167 83.7776ZM153.177 99.6176C153.724 99.6176 154.167 99.1744 154.167 98.6276C154.167 98.0809 153.724 97.6376 153.177 97.6376C152.63 97.6376 152.187 98.0809 152.187 98.6276C152.187 99.1744 152.63 99.6176 153.177 99.6176Z" fill="white"/>
<defs>
<filter id="filter0_di_10393_15519" x="9.15255" y="14.3554" width="173.923" height="126.403" filterUnits="userSpaceOnUse" color-interpolation-filters="sRGB">
<feFlood flood-opacity="0" result="BackgroundImageFix"/>
<feColorMatrix in="SourceAlpha" type="matrix" values="0 0 0 0 0 0 0 0 0 0 0 0 0 0 0 0 0 0 127 0" result="hardAlpha"/>
<feOffset dy="9.50399"/>
<feGaussianBlur stdDeviation="9.50399"/>
<feComposite in2="hardAlpha" operator="out"/>
<feColorMatrix type="matrix" values="0 0 0 0 0 0 0 0 0 0 0 0 0 0 0 0 0 0 0.25 0"/>
<feBlend mode="normal" in2="BackgroundImageFix" result="effect1_dropShadow_10393_15519"/>
<feBlend mode="normal" in="SourceGraphic" in2="effect1_dropShadow_10393_15519" result="shape"/>
<feColorMatrix in="SourceAlpha" type="matrix" values="0 0 0 0 0 0 0 0 0 0 0 0 0 0 0 0 0 0 127 0" result="hardAlpha"/>
<feOffset dx="-0.950399" dy="1.9008"/>
<feGaussianBlur stdDeviation="1.9008"/>
<feComposite in2="hardAlpha" operator="arithmetic" k2="-1" k3="1"/>
<feColorMatrix type="matrix" values="0 0 0 0 1 0 0 0 0 1 0 0 0 0 1 0 0 0 0.35 0"/>
<feBlend mode="normal" in2="shape" result="effect2_innerShadow_10393_15519"/>
</filter>
<filter id="filter1_f_10393_15519" x="40.5158" y="26.7089" width="116.899" height="82.6838" filterUnits="userSpaceOnUse" color-interpolation-filters="sRGB">
<feFlood flood-opacity="0" result="BackgroundImageFix"/>
<feBlend mode="normal" in="SourceGraphic" in2="BackgroundImageFix" result="shape"/>
<feGaussianBlur stdDeviation="4.75199" result="effect1_foregroundBlur_10393_15519"/>
</filter>
<filter id="filter2_d_10393_15519" x="96.9189" y="51.112" width="101.984" height="101.983" filterUnits="userSpaceOnUse" color-interpolation-filters="sRGB">
<feFlood flood-opacity="0" result="BackgroundImageFix"/>
<feColorMatrix in="SourceAlpha" type="matrix" values="0 0 0 0 0 0 0 0 0 0 0 0 0 0 0 0 0 0 127 0" result="hardAlpha"/>
<feOffset dy="10.7649"/>
<feGaussianBlur stdDeviation="10.7649"/>
<feComposite in2="hardAlpha" operator="out"/>
<feColorMatrix type="matrix" values="0 0 0 0 0 0 0 0 0 0 0 0 0 0 0 0 0 0 0.25 0"/>
<feBlend mode="normal" in2="BackgroundImageFix" result="effect1_dropShadow_10393_15519"/>
<feBlend mode="normal" in="SourceGraphic" in2="effect1_dropShadow_10393_15519" result="shape"/>
</filter>
<filter id="filter3_i_10393_15519" x="118.449" y="61.877" width="58.9248" height="58.9238" filterUnits="userSpaceOnUse" color-interpolation-filters="sRGB">
<feFlood flood-opacity="0" result="BackgroundImageFix"/>
<feBlend mode="normal" in="SourceGraphic" in2="BackgroundImageFix" result="shape"/>
<feColorMatrix in="SourceAlpha" type="matrix" values="0 0 0 0 0 0 0 0 0 0 0 0 0 0 0 0 0 0 127 0" result="hardAlpha"/>
<feOffset dy="0.950399"/>
<feComposite in2="hardAlpha" operator="arithmetic" k2="-1" k3="1"/>
<feColorMatrix type="matrix" values="0 0 0 0 1 0 0 0 0 1 0 0 0 0 1 0 0 0 0.5 0"/>
<feBlend mode="normal" in2="shape" result="effect1_innerShadow_10393_15519"/>
</filter>
<linearGradient id="paint0_linear_10393_15519" x1="132.229" y1="116.523" x2="134.774" y2="31.5014" gradientUnits="userSpaceOnUse">
<stop stop-color="#F8F8F8"/>
<stop offset="1" stop-color="#B4B4B5"/>
</linearGradient>
<linearGradient id="paint1_linear_10393_15519" x1="126.035" y1="20.9009" x2="86.2337" y2="57.128" gradientUnits="userSpaceOnUse">
<stop stop-color="white"/>
<stop offset="1" stop-color="white" stop-opacity="0"/>
</linearGradient>
<linearGradient id="paint2_linear_10393_15519" x1="73.6398" y1="134.105" x2="158.379" y2="13.2101" gradientUnits="userSpaceOnUse">
<stop stop-color="#C0C0C0" stop-opacity="0.26"/>
<stop offset="1" stop-color="white" stop-opacity="0"/>
</linearGradient>
<linearGradient id="paint3_linear_10393_15519" x1="87.5606" y1="99.8895" x2="82.8632" y2="43.7717" gradientUnits="userSpaceOnUse">
<stop stop-color="white" stop-opacity="0"/>
<stop offset="1" stop-color="white"/>
</linearGradient>
</defs>
</svg>
