<svg width="321" height="180" viewBox="0 0 321 180" fill="none" xmlns="http://www.w3.org/2000/svg">
<g clip-path="url(#clip0_9067_224171)">
<g filter="url(#filter0_di_9067_224171)">
<path d="M209.527 85.4996C209.527 88.0762 209.264 90.5888 208.765 93.0096C221.658 93.3851 232 104.43 232 117.999C232 130.961 222.565 141.618 210.483 142.875V143H110.048C98.1919 141.52 89 130.792 89 117.999C89 104.445 99.3172 93.4109 112.189 93.0107C113.809 81.1323 123.578 71.9996 135.388 71.9996C138.273 71.9996 141.036 72.5445 143.588 73.5411C148.283 59.8186 160.83 50 175.57 50C194.324 50 209.527 65.8937 209.527 85.4996Z" fill="url(#paint0_linear_9067_224171)"/>
<path d="M209.527 85.4996C209.527 88.0762 209.264 90.5888 208.765 93.0096C221.658 93.3851 232 104.43 232 117.999C232 130.961 222.565 141.618 210.483 142.875V143H110.048C98.1919 141.52 89 130.792 89 117.999C89 104.445 99.3172 93.4109 112.189 93.0107C113.809 81.1323 123.578 71.9996 135.388 71.9996C138.273 71.9996 141.036 72.5445 143.588 73.5411C148.283 59.8186 160.83 50 175.57 50C194.324 50 209.527 65.8937 209.527 85.4996Z" fill="url(#paint1_linear_9067_224171)" fill-opacity="0.3"/>
</g>
<path d="M232.601 78.7772C232.494 77.4944 232.345 76.2221 232.156 74.9619L233.098 74.8206C232.904 73.5268 232.668 72.2455 232.391 70.9786L231.461 71.1818C231.187 69.9259 230.872 68.6842 230.518 67.4587L231.433 67.1944C231.07 65.9388 230.667 64.6997 230.225 63.4791L229.329 63.8034C228.892 62.5956 228.415 61.4062 227.902 60.2369L228.774 59.8538C228.249 58.6585 227.685 57.4839 227.084 56.3318L226.24 56.7721C225.646 55.6337 225.016 54.5179 224.351 53.4263L225.164 52.9307C224.485 51.8166 223.77 50.7274 223.021 49.665L222.243 50.2141C221.503 49.1659 220.729 48.1443 219.923 47.1512L220.662 46.5508C219.84 45.5386 218.985 44.5554 218.098 43.6032L217.401 44.2524C216.527 43.3146 215.622 42.4074 214.687 41.5328L215.337 40.8373C214.385 39.9471 213.403 39.09 212.392 38.2681L211.791 39.0071C210.797 38.1994 209.775 37.4262 208.727 36.6896L209.274 35.9102C208.208 35.1618 207.116 34.4503 205.997 33.7778L205.506 34.594C204.41 33.9351 203.289 33.3143 202.145 32.7335L202.576 31.8842C201.416 31.2956 200.232 30.7474 199.026 30.2414L198.658 31.1196C197.481 30.6259 196.282 30.1731 195.064 29.7632L195.367 28.8605C194.136 28.4465 192.885 28.0753 191.615 27.749L191.378 28.6715C190.145 28.3546 188.895 28.0808 187.627 27.8517L187.796 26.9145C186.521 26.6841 185.23 26.4981 183.923 26.3584L183.822 27.3054C182.559 27.1704 181.282 27.0794 179.992 27.0339L180.025 26.0821C179.376 26.0592 178.723 26.0476 178.067 26.0476C177.399 26.0476 176.734 26.0597 176.072 26.0836L176.107 27.0354C174.79 27.083 173.486 27.1784 172.197 27.3199L172.093 26.3732C170.762 26.5193 169.446 26.7138 168.146 26.9546L168.32 27.891C167.028 28.1305 165.753 28.4168 164.496 28.7478L164.254 27.8268C162.962 28.1673 161.689 28.5542 160.437 28.9857L160.747 29.8861C159.507 30.3135 158.288 30.7853 157.091 31.2996L156.715 30.4246C155.49 30.9511 154.288 31.5214 153.111 32.1332L153.55 32.9782C152.389 33.5819 151.252 34.2268 150.141 34.9109L149.642 34.0999C148.508 34.798 147.402 35.536 146.324 36.312L146.881 37.0849C145.82 37.8487 144.787 38.6499 143.784 39.4863L143.174 38.7549C142.153 39.6061 141.162 40.4932 140.204 41.4139L140.864 42.1007C139.922 43.0056 139.012 43.9437 138.134 44.9129L137.428 44.2738C136.537 45.2581 135.68 46.2738 134.858 47.3189L135.607 47.9077C134.8 48.9336 134.027 49.9884 133.291 51.0698L132.504 50.5339C132.154 51.0481 131.812 51.5682 131.479 52.094L131.481 51.7454C131.396 51.7449 131.312 51.7446 131.228 51.7446C130.615 51.7446 130.006 51.7575 129.401 51.783L129.441 52.7345C128.238 52.7851 127.051 52.8866 125.88 53.0366L125.759 52.092C124.54 52.2483 123.339 52.4562 122.157 52.7133L122.359 53.6439C121.188 53.8988 120.036 54.2032 118.905 54.5546L118.622 53.6451C117.453 54.0088 116.305 54.4217 115.183 54.8812L115.544 55.7626C114.437 56.2157 113.355 56.7151 112.299 57.2584L111.863 56.4115C110.777 56.9704 109.718 57.5745 108.689 58.2211L109.195 59.0276C108.185 59.6622 107.204 60.3387 106.253 61.0545L105.68 60.2937C104.707 61.0269 103.765 61.8003 102.857 62.6111L103.492 63.3214C102.604 64.1149 101.748 64.9451 100.928 65.8095L100.237 65.1539C99.3998 66.0363 98.5982 66.9534 97.8346 67.9023L98.5766 68.4994C97.8306 69.4264 97.1215 70.3845 96.4513 71.3712L95.6635 70.8361C94.9809 71.841 94.3378 72.8749 93.7362 73.935L94.5645 74.405C93.9778 75.4389 93.4314 76.4984 92.9272 77.5807L92.0639 77.1786C91.8689 77.5971 91.6801 78.0191 91.4977 78.4442C90.992 78.6116 90.4908 78.7882 89.9941 78.9737L90.3272 79.8659C89.08 80.3315 87.8619 80.8545 86.6755 81.4315L86.2589 80.5751C85.0366 81.1695 83.8473 81.8199 82.6936 82.5226L83.189 83.336C82.0556 84.0264 80.9571 84.7685 79.8964 85.5589L79.3273 84.7952C78.2406 85.605 77.1928 86.4641 76.1865 87.3689L76.8233 88.0771C75.8384 88.9627 74.894 89.8932 73.9928 90.8651L73.2944 90.2176C72.375 91.2091 71.4997 92.2426 70.6712 93.3145L71.4247 93.8969C70.6159 94.9433 69.8526 96.0272 69.1373 97.1451L68.335 96.6319C67.6075 97.7688 66.9288 98.9402 66.3014 100.142L67.1457 100.583C66.5345 101.754 65.973 102.955 65.4639 104.183L64.5842 103.818C64.0679 105.063 63.6043 106.335 63.196 107.63L64.1043 107.916C63.7077 109.174 63.3643 110.454 63.0765 111.754L62.1467 111.548C61.8558 112.861 61.6207 114.194 61.4436 115.543L62.3879 115.667C62.2166 116.972 62.1009 118.292 62.0431 119.625L61.0916 119.584C61.0624 120.257 61.0476 120.934 61.0476 121.612C61.0476 122.3 61.0629 122.985 61.0932 123.666L62.0446 123.624C62.1045 124.973 62.2244 126.31 62.4019 127.63L61.458 127.757C61.6415 129.122 61.8853 130.47 62.1867 131.798L63.1155 131.588C63.4137 132.901 63.7695 134.195 64.1803 135.466L63.2741 135.759C63.6969 137.066 64.1768 138.35 64.711 139.606L65.5874 139.233C66.1136 140.47 66.6937 141.681 67.3249 142.86L66.4852 143.309C67.1325 144.519 67.8325 145.697 68.5823 146.84L69.3786 146.318C70.115 147.44 70.9004 148.529 71.7321 149.579L70.9855 150.17C71.836 151.244 72.7339 152.279 73.6765 153.273L74.3673 152.617C75.2902 153.589 76.2567 154.52 77.2641 155.407L76.635 156.122C77.6623 157.025 78.7312 157.884 79.8389 158.693L80.4007 157.924C81.4813 158.713 82.5997 159.455 83.753 160.145L83.2637 160.962C84.4356 161.664 85.6427 162.314 86.8826 162.909L87.2946 162.05C88.4982 162.628 89.7331 163.152 90.9968 163.621L90.6658 164.514C91.9432 164.987 93.2493 165.404 94.5814 165.762L94.8284 164.842C96.1139 165.187 97.4241 165.476 98.7568 165.705L98.5955 166.643C99.2677 166.759 99.9455 166.86 100.628 166.945L100.687 166.952H100.747H102.687V166H106.568V166.952H110.449V166H114.33V166.952H118.211V166H122.092V166.952H125.974V166H129.855V166.952H133.736V166H137.617V166.952H141.498V166H145.379V166.952H149.26V166H153.141V166.952H157.022V166H160.903V166.952H164.784V166H168.665V166.952H172.546V166H176.427V166.952H180.308V166H184.189V166.952H188.07V166H191.951V166.952H195.832V166H199.714V166.952H203.595V166H207.476V166.952H211.357V166H215.238V166.952H219.119V166H223V166.952H224.94C225.684 166.952 226.432 166.936 227.18 166.899L227.134 165.948C228.599 165.877 230.061 165.727 231.493 165.474L231.659 166.412C233.157 166.147 234.633 165.77 236.057 165.252L235.731 164.357C237.107 163.856 238.426 163.22 239.658 162.42L240.177 163.219C240.818 162.802 241.439 162.343 242.034 161.838C242.515 161.431 242.988 161.01 243.452 160.577L242.803 159.881C243.7 159.045 244.567 158.161 245.402 157.236L246.109 157.874C246.949 156.943 247.756 155.972 248.528 154.964L247.773 154.385C248.52 153.41 249.236 152.4 249.918 151.361L250.714 151.883C251.401 150.835 252.055 149.758 252.672 148.656L251.842 148.19C252.444 147.115 253.013 146.016 253.546 144.897L254.406 145.306C254.945 144.173 255.449 143.02 255.915 141.851L255.03 141.499C255.488 140.35 255.91 139.186 256.293 138.012L257.198 138.307C257.589 137.11 257.94 135.902 258.251 134.687L257.328 134.451C257.635 133.249 257.902 132.04 258.127 130.83L259.064 131.004C259.294 129.761 259.482 128.515 259.624 127.272L258.678 127.163C258.819 125.926 258.915 124.692 258.963 123.466L259.915 123.503C259.94 122.871 259.952 122.241 259.952 121.613C259.952 120.985 259.94 120.36 259.915 119.738L258.963 119.776C258.914 118.544 258.815 117.323 258.668 116.114L259.614 115.999C259.463 114.752 259.262 113.517 259.013 112.298L258.08 112.488C257.834 111.283 257.54 110.094 257.2 108.923L258.115 108.657C257.765 107.452 257.368 106.266 256.925 105.101L256.035 105.44C255.599 104.291 255.117 103.164 254.592 102.062L255.451 101.652C254.912 100.52 254.329 99.4136 253.703 98.3345L252.879 98.8125C252.263 97.7512 251.605 96.7174 250.907 95.7138L251.689 95.1701C250.974 94.1417 250.218 93.1442 249.423 92.1806L248.688 92.7868C247.908 91.8414 247.089 90.9294 246.235 90.0534L246.916 89.3883C246.042 88.4926 245.131 87.6337 244.185 86.8146L243.562 87.5347C242.636 86.7336 241.677 85.9714 240.685 85.2511L241.245 84.4806C240.233 83.7458 239.189 83.0535 238.115 82.4065L237.623 83.2225C236.577 82.5924 235.501 82.0063 234.397 81.4669L234.815 80.6112C234.429 80.4227 234.04 80.2397 233.648 80.0624C233.62 79.6064 233.588 79.1516 233.55 78.6982L232.601 78.7772ZM131.969 52.7036C131.805 52.7007 131.64 52.6987 131.475 52.6977L131.478 52.242L131.972 52.5543L131.969 52.7036Z" fill="url(#paint2_linear_9067_224171)" stroke="#EFEEEB" stroke-width="1.90476" stroke-dasharray="3.81 3.81"/>
<g filter="url(#filter1_f_9067_224171)">
<path d="M198.813 88.575C198.813 90.4313 198.624 92.2414 198.265 93.9854C207.551 94.2559 215 102.213 215 111.989C215 121.327 208.204 129.005 199.502 129.91V130H127.16C118.621 128.934 112 121.205 112 111.989C112 102.224 119.431 94.2745 128.703 93.9862C129.869 85.4286 136.906 78.8492 145.413 78.8492C147.49 78.8492 149.48 79.2417 151.319 79.9597C154.7 70.0736 163.737 63 174.355 63C187.862 63 198.813 74.4503 198.813 88.575Z" fill="url(#paint3_linear_9067_224171)" fill-opacity="0.4"/>
</g>
<g filter="url(#filter2_d_9067_224171)">
<path d="M246 121C246 103.879 232.121 90 215 90C197.879 90 184 103.879 184 121C184 138.121 197.879 152 215 152C232.121 152 246 138.121 246 121Z" fill="#1FE596"/>
</g>
<g filter="url(#filter3_i_9067_224171)">
<path d="M246 121C246 103.879 232.121 90 215 90C197.879 90 184 103.879 184 121C184 138.121 197.879 152 215 152C232.121 152 246 138.121 246 121Z" fill="url(#paint4_linear_9067_224171)"/>
</g>
<path fill-rule="evenodd" clip-rule="evenodd" d="M216.742 107.017C216.742 105.903 215.839 105 214.725 105C213.611 105 212.708 105.903 212.708 107.017V118.708L201.017 118.708C199.903 118.708 199 119.611 199 120.725C199 121.839 199.903 122.742 201.017 122.742L212.708 122.742V134.433C212.708 135.547 213.611 136.45 214.725 136.45C215.839 136.45 216.742 135.547 216.742 134.433V122.742H228.433C229.547 122.742 230.45 121.839 230.45 120.725C230.45 119.611 229.547 118.708 228.433 118.708L216.742 118.708V107.017Z" fill="white"/>
<g filter="url(#filter4_i_9067_224171)">
<path fill-rule="evenodd" clip-rule="evenodd" d="M39.4 82C38.0745 82 37 83.0745 37 84.4V109.6C37 110.925 38.0745 112 39.4 112H64.6C65.9255 112 67 110.925 67 109.6V84.4C67 83.0745 65.9255 82 64.6 82H39.4ZM46.375 91.375H48.0625L48.8766 89.7469C49.0671 89.3658 49.4567 89.125 49.8828 89.125H54.1172C54.5433 89.125 54.9329 89.3658 55.1234 89.7469L55.9375 91.375H57.625C58.8676 91.375 59.875 92.3824 59.875 93.625V101.5C59.875 102.743 58.8676 103.75 57.625 103.75H46.375C45.1324 103.75 44.125 102.743 44.125 101.5V93.625C44.125 92.3824 45.1324 91.375 46.375 91.375ZM52 100.938C54.1746 100.938 55.9375 99.1746 55.9375 97C55.9375 94.8254 54.1746 93.0625 52 93.0625C49.8254 93.0625 48.0625 94.8254 48.0625 97C48.0625 99.1746 49.8254 100.938 52 100.938ZM52 99.8125C53.5533 99.8125 54.8125 98.5533 54.8125 97C54.8125 95.4467 53.5533 94.1875 52 94.1875C50.4467 94.1875 49.1875 95.4467 49.1875 97C49.1875 98.5533 50.4467 99.8125 52 99.8125Z" fill="url(#paint5_linear_9067_224171)"/>
</g>
<g filter="url(#filter5_i_9067_224171)">
<path fill-rule="evenodd" clip-rule="evenodd" d="M103.4 29C102.075 29 101 30.0745 101 31.4V56.6C101 57.9255 102.075 59 103.4 59H128.6C129.925 59 131 57.9255 131 56.6V31.4C131 30.0745 129.925 29 128.6 29H103.4ZM123.13 45.5855C124.29 44.8551 124.29 43.1134 123.13 42.383L113.69 36.2591C112.529 35.5288 111 36.4277 111 37.8884V50.0801C111 51.597 112.477 52.4959 113.69 51.7094L123.13 45.5855Z" fill="url(#paint6_linear_9067_224171)"/>
</g>
<g filter="url(#filter6_i_9067_224171)">
<path fill-rule="evenodd" clip-rule="evenodd" d="M253.4 35C252.075 35 251 36.0745 251 37.4V56.6C251 57.9255 252.075 59 253.4 59H272.6C273.925 59 275 57.9255 275 56.6V37.4C275 36.0745 273.925 35 272.6 35H253.4ZM261.009 45.6032C262.117 45.6032 263.016 44.7422 263.016 43.6802C263.016 42.6182 262.117 41.7573 261.009 41.7573C259.9 41.7573 259.002 42.6182 259.002 43.6802C259.002 44.7422 259.9 45.6032 261.009 45.6032ZM265.135 45.1929L261.306 50.0002C261.306 50.018 261.287 50.018 261.269 50.0002L259.15 47.4185C258.908 47.1158 258.444 47.1158 258.202 47.4185L255.154 51.1575C254.838 51.5314 255.117 52.0834 255.619 52.0834H270.543C270.971 52.0834 271.212 51.6026 270.952 51.2822L266.101 45.1929C265.86 44.8902 265.376 44.8902 265.135 45.1929Z" fill="url(#paint7_linear_9067_224171)"/>
</g>
</g>
<defs>
<filter id="filter0_di_9067_224171" x="69" y="40" width="183" height="133" filterUnits="userSpaceOnUse" color-interpolation-filters="sRGB">
<feFlood flood-opacity="0" result="BackgroundImageFix"/>
<feColorMatrix in="SourceAlpha" type="matrix" values="0 0 0 0 0 0 0 0 0 0 0 0 0 0 0 0 0 0 127 0" result="hardAlpha"/>
<feOffset dy="10"/>
<feGaussianBlur stdDeviation="10"/>
<feComposite in2="hardAlpha" operator="out"/>
<feColorMatrix type="matrix" values="0 0 0 0 0 0 0 0 0 0 0 0 0 0 0 0 0 0 0.25 0"/>
<feBlend mode="normal" in2="BackgroundImageFix" result="effect1_dropShadow_9067_224171"/>
<feBlend mode="normal" in="SourceGraphic" in2="effect1_dropShadow_9067_224171" result="shape"/>
<feColorMatrix in="SourceAlpha" type="matrix" values="0 0 0 0 0 0 0 0 0 0 0 0 0 0 0 0 0 0 127 0" result="hardAlpha"/>
<feOffset dx="-1" dy="2"/>
<feGaussianBlur stdDeviation="2"/>
<feComposite in2="hardAlpha" operator="arithmetic" k2="-1" k3="1"/>
<feColorMatrix type="matrix" values="0 0 0 0 1 0 0 0 0 1 0 0 0 0 1 0 0 0 0.35 0"/>
<feBlend mode="normal" in2="shape" result="effect2_innerShadow_9067_224171"/>
</filter>
<filter id="filter1_f_9067_224171" x="102" y="53" width="123" height="87" filterUnits="userSpaceOnUse" color-interpolation-filters="sRGB">
<feFlood flood-opacity="0" result="BackgroundImageFix"/>
<feBlend mode="normal" in="SourceGraphic" in2="BackgroundImageFix" result="shape"/>
<feGaussianBlur stdDeviation="5" result="effect1_foregroundBlur_9067_224171"/>
</filter>
<filter id="filter2_d_9067_224171" x="161.347" y="78.6733" width="107.307" height="107.307" filterUnits="userSpaceOnUse" color-interpolation-filters="sRGB">
<feFlood flood-opacity="0" result="BackgroundImageFix"/>
<feColorMatrix in="SourceAlpha" type="matrix" values="0 0 0 0 0 0 0 0 0 0 0 0 0 0 0 0 0 0 127 0" result="hardAlpha"/>
<feOffset dy="11.3267"/>
<feGaussianBlur stdDeviation="11.3267"/>
<feComposite in2="hardAlpha" operator="out"/>
<feColorMatrix type="matrix" values="0 0 0 0 0 0 0 0 0 0 0 0 0 0 0 0 0 0 0.25 0"/>
<feBlend mode="normal" in2="BackgroundImageFix" result="effect1_dropShadow_9067_224171"/>
<feBlend mode="normal" in="SourceGraphic" in2="effect1_dropShadow_9067_224171" result="shape"/>
</filter>
<filter id="filter3_i_9067_224171" x="184" y="90" width="62" height="62" filterUnits="userSpaceOnUse" color-interpolation-filters="sRGB">
<feFlood flood-opacity="0" result="BackgroundImageFix"/>
<feBlend mode="normal" in="SourceGraphic" in2="BackgroundImageFix" result="shape"/>
<feColorMatrix in="SourceAlpha" type="matrix" values="0 0 0 0 0 0 0 0 0 0 0 0 0 0 0 0 0 0 127 0" result="hardAlpha"/>
<feOffset dy="1"/>
<feComposite in2="hardAlpha" operator="arithmetic" k2="-1" k3="1"/>
<feColorMatrix type="matrix" values="0 0 0 0 1 0 0 0 0 1 0 0 0 0 1 0 0 0 0.5 0"/>
<feBlend mode="normal" in2="shape" result="effect1_innerShadow_9067_224171"/>
</filter>
<filter id="filter4_i_9067_224171" x="37" y="82" width="30" height="32" filterUnits="userSpaceOnUse" color-interpolation-filters="sRGB">
<feFlood flood-opacity="0" result="BackgroundImageFix"/>
<feBlend mode="normal" in="SourceGraphic" in2="BackgroundImageFix" result="shape"/>
<feColorMatrix in="SourceAlpha" type="matrix" values="0 0 0 0 0 0 0 0 0 0 0 0 0 0 0 0 0 0 127 0" result="hardAlpha"/>
<feOffset dy="2"/>
<feGaussianBlur stdDeviation="1"/>
<feComposite in2="hardAlpha" operator="arithmetic" k2="-1" k3="1"/>
<feColorMatrix type="matrix" values="0 0 0 0 1 0 0 0 0 1 0 0 0 0 1 0 0 0 0.25 0"/>
<feBlend mode="normal" in2="shape" result="effect1_innerShadow_9067_224171"/>
</filter>
<filter id="filter5_i_9067_224171" x="101" y="29" width="30" height="32" filterUnits="userSpaceOnUse" color-interpolation-filters="sRGB">
<feFlood flood-opacity="0" result="BackgroundImageFix"/>
<feBlend mode="normal" in="SourceGraphic" in2="BackgroundImageFix" result="shape"/>
<feColorMatrix in="SourceAlpha" type="matrix" values="0 0 0 0 0 0 0 0 0 0 0 0 0 0 0 0 0 0 127 0" result="hardAlpha"/>
<feOffset dy="2"/>
<feGaussianBlur stdDeviation="1"/>
<feComposite in2="hardAlpha" operator="arithmetic" k2="-1" k3="1"/>
<feColorMatrix type="matrix" values="0 0 0 0 1 0 0 0 0 1 0 0 0 0 1 0 0 0 0.25 0"/>
<feBlend mode="normal" in2="shape" result="effect1_innerShadow_9067_224171"/>
</filter>
<filter id="filter6_i_9067_224171" x="251" y="35" width="24" height="26" filterUnits="userSpaceOnUse" color-interpolation-filters="sRGB">
<feFlood flood-opacity="0" result="BackgroundImageFix"/>
<feBlend mode="normal" in="SourceGraphic" in2="BackgroundImageFix" result="shape"/>
<feColorMatrix in="SourceAlpha" type="matrix" values="0 0 0 0 0 0 0 0 0 0 0 0 0 0 0 0 0 0 127 0" result="hardAlpha"/>
<feOffset dy="2"/>
<feGaussianBlur stdDeviation="1"/>
<feComposite in2="hardAlpha" operator="arithmetic" k2="-1" k3="1"/>
<feColorMatrix type="matrix" values="0 0 0 0 1 0 0 0 0 1 0 0 0 0 1 0 0 0 0.25 0"/>
<feBlend mode="normal" in2="shape" result="effect1_innerShadow_9067_224171"/>
</filter>
<linearGradient id="paint0_linear_9067_224171" x1="198.5" y1="147.5" x2="201.178" y2="58.0409" gradientUnits="userSpaceOnUse">
<stop stop-color="#7E60FF"/>
<stop offset="1" stop-color="#D9C9FF"/>
</linearGradient>
<linearGradient id="paint1_linear_9067_224171" x1="191.982" y1="46.8871" x2="150.104" y2="85.0048" gradientUnits="userSpaceOnUse">
<stop stop-color="white"/>
<stop offset="1" stop-color="white" stop-opacity="0"/>
</linearGradient>
<linearGradient id="paint2_linear_9067_224171" x1="136.853" y1="166" x2="226.015" y2="38.7953" gradientUnits="userSpaceOnUse">
<stop stop-color="#989694" stop-opacity="0.26"/>
<stop offset="1" stop-color="white" stop-opacity="0"/>
</linearGradient>
<linearGradient id="paint3_linear_9067_224171" x1="151.5" y1="130" x2="146.557" y2="70.9533" gradientUnits="userSpaceOnUse">
<stop stop-color="#A18FE8" stop-opacity="0"/>
<stop offset="1" stop-color="white"/>
</linearGradient>
<linearGradient id="paint4_linear_9067_224171" x1="215" y1="152" x2="215" y2="90" gradientUnits="userSpaceOnUse">
<stop stop-color="#02C6A1"/>
<stop offset="1" stop-color="#02C6A1" stop-opacity="0"/>
</linearGradient>
<linearGradient id="paint5_linear_9067_224171" x1="57.625" y1="112" x2="67.1291" y2="85.6391" gradientUnits="userSpaceOnUse">
<stop stop-color="#C3B5F8"/>
<stop offset="1" stop-color="#F1ECFE"/>
</linearGradient>
<linearGradient id="paint6_linear_9067_224171" x1="121.625" y1="59" x2="131.129" y2="32.6391" gradientUnits="userSpaceOnUse">
<stop stop-color="#C3B5F8"/>
<stop offset="1" stop-color="#F1ECFE"/>
</linearGradient>
<linearGradient id="paint7_linear_9067_224171" x1="267.5" y1="59" x2="275.103" y2="37.9113" gradientUnits="userSpaceOnUse">
<stop stop-color="#C3B5F8"/>
<stop offset="1" stop-color="#F1ECFE"/>
</linearGradient>
<clipPath id="clip0_9067_224171">
<rect width="320" height="180" fill="white" transform="translate(0.5)"/>
</clipPath>
</defs>
</svg>
